<?xml version="1.0" encoding="UTF-8"?>
<svg id="Layer_1" xmlns="http://www.w3.org/2000/svg" xmlns:xlink="http://www.w3.org/1999/xlink" version="1.1" viewBox="0 0 1148.364 264.848">
  <!-- Generator: Adobe Illustrator 30.1.0, SVG Export Plug-In . SVG Version: 2.1.1 Build 136)  -->
  <defs>
    <style>
      .st0 {
        fill: url(#linear-gradient2);
      }

      .st1 {
        fill: url(#linear-gradient1);
      }

      .st2 {
        fill: url(#linear-gradient9);
      }

      .st3 {
        fill: url(#linear-gradient3);
      }

      .st4 {
        fill: url(#linear-gradient6);
      }

      .st5 {
        fill: url(#linear-gradient8);
      }

      .st6 {
        fill: url(#linear-gradient7);
      }

      .st7 {
        fill: url(#linear-gradient5);
      }

      .st8 {
        fill: url(#linear-gradient4);
      }

      .st9 {
        fill: url(#linear-gradient10);
      }

      .st10 {
        fill: url(#linear-gradient);
      }

      .st11 {
        fill: #83868d;
      }
    </style>
    <linearGradient id="linear-gradient" x1="-286.519" y1="104.835" x2="707.133" y2="104.835" gradientUnits="userSpaceOnUse">
      <stop offset=".013" stop-color="#8c4f9e"/>
      <stop offset=".142" stop-color="#89509e"/>
      <stop offset=".231" stop-color="#8054a1"/>
      <stop offset=".309" stop-color="#705ba5"/>
      <stop offset=".379" stop-color="#5b64aa"/>
      <stop offset=".444" stop-color="#3e71b1"/>
      <stop offset=".505" stop-color="#1c80ba"/>
      <stop offset=".549" stop-color="#008dc2"/>
      <stop offset="1" stop-color="#41a03f"/>
    </linearGradient>
    <linearGradient id="linear-gradient1" x1="-286.519" y1="105.262" x2="707.133" y2="105.262" xlink:href="#linear-gradient"/>
    <linearGradient id="linear-gradient2" x1="-286.519" x2="707.133" xlink:href="#linear-gradient"/>
    <linearGradient id="linear-gradient3" x1="-286.519" y1="168.945" x2="707.133" y2="168.945" xlink:href="#linear-gradient"/>
    <linearGradient id="linear-gradient4" x1="-286.519" y1="140.643" x2="707.133" y2="140.643" xlink:href="#linear-gradient"/>
    <linearGradient id="linear-gradient5" x1="-286.519" y1="58.849" x2="707.133" y2="58.849" xlink:href="#linear-gradient"/>
    <linearGradient id="linear-gradient6" x1="-286.519" y1="79.078" x2="707.133" y2="79.078" xlink:href="#linear-gradient"/>
    <linearGradient id="linear-gradient7" x1="-286.519" y1="112.483" x2="707.133" y2="112.483" xlink:href="#linear-gradient"/>
    <linearGradient id="linear-gradient8" x1="-286.519" y1="104.407" x2="707.133" y2="104.407" xlink:href="#linear-gradient"/>
    <linearGradient id="linear-gradient9" x1="-286.519" y1="206.414" x2="707.133" y2="206.414" xlink:href="#linear-gradient"/>
    <linearGradient id="linear-gradient10" x1="470.764" y1="214.621" x2="471.106" y2="214.621" xlink:href="#linear-gradient"/>
  </defs>
  <g>
    <g>
      <path class="st11" d="M681.817,89.038c-1.239-3.846-2.413-7.757-3.652-11.667h-17.598c-1.239,3.911-2.413,7.822-3.652,11.667h-5.67c5.281-16.1,10.363-31.093,14.731-44.652h7.041l14.6,44.652h-5.8ZM670.799,53.317l-1.304-4.367h-.193l-1.304,4.433c-1.957,6.453-3.65,12.059-6.063,19.751h14.928c-1.957-6.584-3.976-13.298-6.063-19.817Z"/>
      <path class="st11" d="M698.374,89.038h-5.281v-46.346h5.281v46.346Z"/>
      <path class="st11" d="M710.104,52.34c-1.826,0-3.454-1.631-3.454-3.456,0-1.955,1.628-3.52,3.454-3.52,1.957,0,3.585,1.564,3.585,3.52,0,1.825-1.628,3.456-3.585,3.456ZM707.432,89.038v-31.81h5.278v31.81h-5.278Z"/>
      <path class="st11" d="M741.002,57.228c3.52-.196,6.974-.457,10.428-.716v3.846h-5.802l-.128.261c1.693,1.564,2.411,4.237,2.411,6.453,0,6.127-5.085,10.624-12.711,10.624h-4.172c-3.259,0-5.346,2.021-5.346,3.847,0,1.499,1.109,2.541,3.846,2.541h8.083c8.604,0,12.907,2.803,12.907,8.474,0,6.062-6.257,10.56-16.1,10.56-10.494,0-13.755-4.302-13.755-8.735,0-3.389,2.217-5.932,4.433-7.104-2.867-.652-4.041-2.803-4.041-5.085,0-3.454,2.87-5.997,5.802-6.519v-.325c-2.215-1.239-3.976-3.977-3.976-8.019,0-7.561,6.322-10.82,12.189-10.82,2.087,0,4.172.13,5.933.716ZM729.919,87.865c-2.215.847-4.041,3.063-4.041,5.475,0,3.128,2.348,5.866,9.126,5.866,5.541,0,10.039-2.216,10.039-6.388,0-2.608-1.826-4.953-8.148-4.953h-6.976ZM735.33,60.553c-4.367,0-7.039,2.541-7.039,6.519,0,4.172,2.867,6.713,6.974,6.713,4.172,0,7.17-2.412,7.17-6.778,0-2.999-1.693-6.453-7.104-6.453Z"/>
      <path class="st11" d="M777.57,89.038v-20.989c0-4.433-.522-7.17-5.541-7.17-2.998,0-6.974,1.564-9.711,3.128v25.031h-5.346v-31.81h5.215l.065,2.738.196.13c3.585-2.282,8.017-3.585,11.08-3.585,8.67,0,9.322,5.475,9.322,10.234v22.293h-5.281Z"/>
      <path class="st11" d="M793.605,52.34c-1.826,0-3.454-1.631-3.454-3.456,0-1.955,1.628-3.52,3.454-3.52,1.957,0,3.585,1.564,3.585,3.52,0,1.825-1.628,3.456-3.585,3.456ZM790.933,89.038v-31.81h5.278v31.81h-5.278Z"/>
      <path class="st11" d="M825.022,89.038v-20.989c0-4.433-.522-7.17-5.541-7.17-2.998,0-6.974,1.564-9.711,3.128v25.031h-5.346v-31.81h5.215l.065,2.738.196.13c3.585-2.282,8.017-3.585,11.08-3.585,8.67,0,9.322,5.475,9.322,10.234v22.293h-5.28Z"/>
      <path class="st11" d="M856.701,57.228c3.52-.196,6.974-.457,10.428-.716v3.846h-5.802l-.128.261c1.693,1.564,2.411,4.237,2.411,6.453,0,6.127-5.085,10.624-12.711,10.624h-4.172c-3.259,0-5.346,2.021-5.346,3.847,0,1.499,1.109,2.541,3.846,2.541h8.083c8.604,0,12.907,2.803,12.907,8.474,0,6.062-6.257,10.56-16.1,10.56-10.494,0-13.755-4.302-13.755-8.735,0-3.389,2.217-5.932,4.433-7.104-2.867-.652-4.041-2.803-4.041-5.085,0-3.454,2.87-5.997,5.802-6.519v-.325c-2.215-1.239-3.976-3.977-3.976-8.019,0-7.561,6.322-10.82,12.189-10.82,2.087,0,4.172.13,5.933.716ZM845.618,87.865c-2.215.847-4.041,3.063-4.041,5.475,0,3.128,2.348,5.866,9.126,5.866,5.541,0,10.039-2.216,10.039-6.388,0-2.608-1.826-4.953-8.148-4.953h-6.976ZM851.029,60.553c-4.367,0-7.039,2.541-7.039,6.519,0,4.172,2.867,6.713,6.974,6.713,4.172,0,7.17-2.412,7.17-6.778,0-2.999-1.693-6.453-7.104-6.453Z"/>
      <path class="st11" d="M917.778,46.473l-1.761,3.912c-4.237-1.891-7.822-2.282-10.754-2.282-5.215,0-8.865,2.672-8.865,8.083,0,4.888,5.017,6.258,9.972,7.496,6.454,1.629,14.342,3.325,14.342,13.102,0,8.865-6.781,12.776-16.426,12.776-4.628,0-10.039-.913-14.407-3.456l1.891-4.041c5.278,2.542,9.257,3.064,12.581,3.064,6.778,0,10.754-2.021,10.754-8.344,0-5.346-4.107-6.779-9.583-8.213-7.757-2.021-14.796-3.976-14.796-12.254,0-8.017,6.194-12.646,14.796-12.646,3.718,0,8.474.586,12.257,2.802Z"/>
      <path class="st11" d="M949.845,59.053l-1.889,3.782c-3.128-1.696-5.476-2.021-7.561-2.021-6.259,0-9.191,4.953-9.191,12.515,0,6.583,1.891,11.994,8.8,11.994,2.998,0,5.476-.587,9.126-2.608l1.628,3.52c-2.802,2.086-6.843,3.325-11.015,3.325-10.431,0-14.081-6.519-14.081-16.036,0-6.713,2.544-17.012,14.472-17.012,3.259,0,6.843.716,9.711,2.541Z"/>
      <path class="st11" d="M960.732,52.34c-1.826,0-3.454-1.631-3.454-3.456,0-1.955,1.628-3.52,3.454-3.52,1.957,0,3.585,1.564,3.585,3.52,0,1.825-1.628,3.456-3.585,3.456ZM958.061,89.038v-31.81h5.278v31.81h-5.278Z"/>
      <path class="st11" d="M997.691,71.699v2.542h-21.315c-.065,5.932,1.954,11.277,9.061,11.277,3.715,0,6.583-.783,10.167-2.282l1.304,3.389c-3.78,2.021-7.626,2.934-11.863,2.934-11.341,0-14.146-7.497-14.146-16.361,0-5.672,1.957-16.687,13.95-16.687,12.711,0,12.841,11.276,12.841,15.187ZM976.441,70.787h16.231c0-6.127-1.826-10.364-7.691-10.364-6.128,0-8.148,4.953-8.539,10.364Z"/>
      <path class="st11" d="M1025.394,89.038v-20.989c0-4.433-.522-7.17-5.541-7.17-2.998,0-6.974,1.564-9.711,3.128v25.031h-5.346v-31.81h5.215l.065,2.738.196.13c3.585-2.282,8.017-3.585,11.08-3.585,8.67,0,9.322,5.475,9.322,10.234v22.293h-5.281Z"/>
      <path class="st11" d="M1061.698,59.053l-1.889,3.782c-3.128-1.696-5.476-2.021-7.561-2.021-6.259,0-9.191,4.953-9.191,12.515,0,6.583,1.891,11.994,8.8,11.994,2.998,0,5.476-.587,9.126-2.608l1.628,3.52c-2.802,2.086-6.843,3.325-11.015,3.325-10.431,0-14.081-6.519-14.081-16.036,0-6.713,2.544-17.012,14.472-17.012,3.259,0,6.843.716,9.711,2.541Z"/>
      <path class="st11" d="M1092.338,71.699v2.542h-21.315c-.065,5.932,1.954,11.277,9.061,11.277,3.715,0,6.583-.783,10.167-2.282l1.304,3.389c-3.78,2.021-7.626,2.934-11.863,2.934-11.341,0-14.146-7.497-14.146-16.361,0-5.672,1.957-16.687,13.95-16.687,12.711,0,12.841,11.276,12.841,15.187ZM1071.088,70.787h16.231c0-6.127-1.826-10.364-7.691-10.364-6.128,0-8.148,4.953-8.539,10.364Z"/>
      <path class="st11" d="M681.817,158.097c-1.239-3.846-2.413-7.757-3.652-11.667h-17.598c-1.239,3.911-2.413,7.822-3.652,11.667h-5.67c5.281-16.1,10.363-31.093,14.731-44.652h7.041l14.6,44.652h-5.8ZM670.799,122.376l-1.304-4.367h-.193l-1.304,4.433c-1.957,6.453-3.65,12.06-6.063,19.751h14.928c-1.957-6.585-3.976-13.298-6.063-19.817Z"/>
      <path class="st11" d="M714.211,128.112l-1.889,3.782c-3.128-1.696-5.476-2.021-7.561-2.021-6.259,0-9.191,4.954-9.191,12.515,0,6.583,1.889,11.994,8.8,11.994,2.998,0,5.476-.587,9.126-2.606l1.628,3.52c-2.802,2.085-6.843,3.324-11.015,3.324-10.431,0-14.081-6.52-14.081-16.035,0-6.715,2.544-17.013,14.472-17.013,3.259,0,6.843.716,9.711,2.541Z"/>
      <path class="st11" d="M726.467,132.023q.065,0,.13.065c2.867-4.562,7.822-6.517,11.994-6.517v5.149c-3.324.065-8.148.978-11.928,5.671v21.707h-5.411v-31.81h5.02l.196,5.736Z"/>
      <path class="st11" d="M753.257,158.619c-10.431,0-13.689-7.691-13.689-16.296,0-8.474,3.911-16.752,14.342-16.752,10.624,0,13.82,8.278,13.82,16.622,0,8.148-3.326,16.426-14.472,16.426ZM753.909,129.678c-7.041,0-8.8,6.648-8.8,12.646,0,6.322,1.304,12.189,8.8,12.189,6.909,0,8.278-6.454,8.278-12.189,0-5.672-1.239-12.646-8.278-12.646Z"/>
      <path class="st11" d="M772.159,152.491c4.041,1.826,7.561,2.152,9.844,2.152,4.041,0,7.235-1.239,7.235-5.085,0-3.389-3.259-4.563-6.843-5.802-5.541-1.954-10.757-3.389-10.757-9.254,0-6.128,5.15-8.931,11.537-8.931,2.674,0,6.715.586,9.518,2.28l-1.631,3.716c-3.259-1.304-5.735-1.695-7.952-1.695-3.324,0-6.452,1.173-6.452,4.694,0,2.737,4.172,3.976,6.778,4.822,5.346,1.696,10.952,3.391,10.952,10.105,0,6.389-5.281,9.126-12.581,9.126-3.78,0-8.474-.848-11.344-2.478l1.696-3.65Z"/>
      <path class="st11" d="M799.927,152.491c4.041,1.826,7.561,2.152,9.844,2.152,4.041,0,7.235-1.239,7.235-5.085,0-3.389-3.259-4.563-6.843-5.802-5.541-1.954-10.757-3.389-10.757-9.254,0-6.128,5.15-8.931,11.537-8.931,2.674,0,6.715.586,9.518,2.28l-1.631,3.716c-3.259-1.304-5.735-1.695-7.952-1.695-3.324,0-6.452,1.173-6.452,4.694,0,2.737,4.172,3.976,6.778,4.822,5.346,1.696,10.952,3.391,10.952,10.105,0,6.389-5.281,9.126-12.581,9.126-3.78,0-8.474-.848-11.344-2.478l1.696-3.65Z"/>
      <path class="st11" d="M862.895,139.78h-9.648l.065,18.318h-5.604v-44.652h14.6c8.148,0,13.885,4.433,13.885,12.972,0,5.411-2.998,13.362-13.298,13.362ZM853.247,117.683v17.925h8.865c4.172,0,8.409-2.02,8.409-8.995,0-6.127-3.78-8.931-8.67-8.931h-8.604Z"/>
      <path class="st11" d="M905.327,136.195v21.902h-4.694l-.326-3.454s-.063-.065-.128-.065c-4.889,3.911-8.996,3.976-11.018,3.976-7.365,0-9.387-5.085-9.387-8.865,0-5.998,4.563-9.322,10.822-9.648l9.583-.522v-2.28c0-5.215-1.37-7.496-6.846-7.496-3.193,0-6.843.781-10.037,1.825-.326-1.174-.652-2.347-1.044-3.521,3.65-1.564,8.344-2.476,12.254-2.476,6.843,0,10.82,2.802,10.82,10.624ZM891.901,143.432c-4.302.259-6.454,2.346-6.454,5.735,0,3.78,1.826,5.672,5.933,5.672,2.737,0,5.8-1.435,8.8-4.041v-7.887l-8.278.522Z"/>
      <path class="st11" d="M917.452,132.023q.065,0,.13.065c2.867-4.562,7.822-6.517,11.994-6.517v5.149c-3.324.065-8.148.978-11.928,5.671v21.707h-5.411v-31.81h5.02l.196,5.736Z"/>
      <path class="st11" d="M939.354,139.454c4.237-4.365,8.67-8.734,12.907-13.166h5.996c-3.976,4.107-8.278,8.41-12.32,12.517.652.911,1.5,1.759,2.152,2.672l11.146,16.622h-5.868c-3.585-5.346-7.104-10.754-10.624-16.1l-3.585,3.585v12.515h-5.346v-46.281h5.346v20.207l-.261,7.237.457.193Z"/>
      <path class="st11" d="M966.469,121.399c-1.826,0-3.454-1.631-3.454-3.456,0-1.955,1.628-3.52,3.454-3.52,1.957,0,3.585,1.564,3.585,3.52,0,1.825-1.628,3.456-3.585,3.456ZM963.798,158.097v-31.81h5.278v31.81h-5.278Z"/>
      <path class="st11" d="M997.887,158.097v-20.989c0-4.433-.522-7.17-5.541-7.17-2.998,0-6.974,1.564-9.711,3.128v25.031h-5.346v-31.81h5.215l.065,2.738.196.13c3.585-2.282,8.017-3.585,11.08-3.585,8.67,0,9.322,5.475,9.322,10.233v22.294h-5.281Z"/>
      <path class="st11" d="M1009.946,152.491c4.041,1.826,7.561,2.152,9.844,2.152,4.041,0,7.235-1.239,7.235-5.085,0-3.389-3.259-4.563-6.843-5.802-5.541-1.954-10.757-3.389-10.757-9.254,0-6.128,5.15-8.931,11.537-8.931,2.674,0,6.715.586,9.518,2.28l-1.631,3.716c-3.259-1.304-5.735-1.695-7.952-1.695-3.324,0-6.452,1.173-6.452,4.694,0,2.737,4.172,3.976,6.778,4.822,5.346,1.696,10.952,3.391,10.952,10.105,0,6.389-5.281,9.126-12.581,9.126-3.78,0-8.474-.848-11.344-2.478l1.696-3.65Z"/>
      <path class="st11" d="M1048.992,158.619c-10.431,0-13.689-7.691-13.689-16.296,0-8.474,3.911-16.752,14.342-16.752,10.624,0,13.817,8.278,13.817,16.622,0,8.148-3.324,16.426-14.47,16.426ZM1049.644,129.678c-7.039,0-8.8,6.648-8.8,12.646,0,6.322,1.304,12.189,8.8,12.189,6.909,0,8.278-6.454,8.278-12.189,0-5.672-1.239-12.646-8.278-12.646Z"/>
      <path class="st11" d="M1089.666,158.097v-20.989c0-4.433-.522-7.17-5.541-7.17-2.998,0-6.974,1.564-9.711,3.128v25.031h-5.346v-31.81h5.215l.065,2.738.196.13c3.585-2.282,8.017-3.585,11.08-3.585,8.67,0,9.322,5.475,9.322,10.233v22.294h-5.281Z"/>
      <path class="st11" d="M1100.16,111.686c2.348,0,3.846,1.825,3.846,4.237,0,3.65-2.867,8.148-6.648,10.038l-1.304-1.76c1.696-1.564,2.739-3.389,2.933-5.736-1.498-.457-2.346-1.695-2.346-3.324,0-1.826,1.565-3.456,3.52-3.456Z"/>
      <path class="st11" d="M1104.984,152.491c4.041,1.826,7.561,2.152,9.844,2.152,4.041,0,7.235-1.239,7.235-5.085,0-3.389-3.259-4.563-6.843-5.802-5.541-1.954-10.757-3.389-10.757-9.254,0-6.128,5.15-8.931,11.537-8.931,2.674,0,6.715.586,9.518,2.28l-1.631,3.716c-3.259-1.304-5.735-1.695-7.952-1.695-3.324,0-6.452,1.173-6.452,4.694,0,2.737,4.172,3.976,6.778,4.822,5.346,1.696,10.952,3.391,10.952,10.105,0,6.389-5.281,9.126-12.581,9.126-3.78,0-8.474-.848-11.344-2.478l1.696-3.65Z"/>
    </g>
    <path class="st10" d="M103.908,156.2l-19.12,18.263c-7.704,1.997-15.979,3.71-22.829,3.71-30.82,0-40.808-20.829-40.808-39.664,0-8.56,2-23.401,14.841-31.389,6.275-3.71,20.829-11.132,67.916-13.413v-10.844c0-15.694-5.994-20.26-23.401-20.26-10.557,0-28.536,2.281-42.233,6.278l-6.278-21.973c16.551-8.847,38.811-15.41,60.784-15.41,32.53,0,51.365,12.554,51.365,46.515v68.487h21.973v20.545c-9.132,5.707-24.542,10.56-38.239,10.56-9.988,0-21.117-1.428-23.114-21.404h-.856ZM103.908,140.79v-28.536c-37.955,3.997-40.236,15.982-40.236,22.545,0,9.416,4.566,15.694,14.838,15.694,7.135,0,17.123-3.425,25.398-9.703Z"/>
    <path class="st1" d="M285.661,42.342c0,12.841-.284,25.111-.284,37.952l-13.985,1.713c-3.138-7.135-6.563-13.982-9.701-20.832-7.991-4.566-16.838-5.422-20.832-5.422-12.272,0-17.407,5.422-17.407,12.557,0,7.419,6.278,11.416,26.823,19.691,29.679,11.698,44.233,22.542,44.233,46.515,0,24.536-17.123,43.943-64.493,43.943-19.691,0-39.38-4.278-49.368-10.275l-2.281-41.374,13.695-2.569,10.275,22.829c6.847,4.853,17.407,7.135,25.398,7.135,11.985,0,23.97-5.135,23.97-14.838,0-11.416-11.129-15.694-25.398-21.973-20.832-8.847-45.374-17.694-45.374-43.661,0-24.826,17.694-41.664,57.359-41.664,16.551,0,33.958,3.425,47.371,10.275Z"/>
    <path class="st0" d="M391.798,156.2l-19.12,18.263c-7.704,1.997-15.979,3.71-22.829,3.71-30.82,0-40.808-20.829-40.808-39.664,0-8.56,2-23.401,14.841-31.389,6.278-3.71,20.829-11.132,67.916-13.413v-10.844c0-15.694-5.994-20.26-23.401-20.26-10.557,0-28.536,2.281-42.233,6.278l-6.278-21.973c16.551-8.847,38.811-15.41,60.784-15.41,32.53,0,51.365,12.554,51.365,46.515v68.487h21.973v20.545c-9.132,5.707-24.542,10.56-38.239,10.56-9.988,0-21.117-1.428-23.114-21.404h-.856ZM391.798,140.79v-28.536c-37.955,3.997-40.236,15.982-40.236,22.545,0,9.416,4.566,15.694,14.838,15.694,7.135,0,17.123-3.425,25.398-9.703Z"/>
    <polygon class="st3" points="471.106 168.646 471.106 214.427 551.378 123.463 471.106 168.646"/>
    <polygon class="st8" points="471.106 130.689 471.106 167.883 550.738 113.404 471.106 130.689"/>
    <polygon class="st7" points="476.805 31.386 450.846 31.588 450.846 52.63 452.877 53.344 547.433 86.313 476.805 31.386"/>
    <polygon class="st4" points="471.106 62.103 471.106 94.056 548.169 96.053 471.106 62.103"/>
    <polygon class="st6" points="471.106 95.584 471.106 129.383 549.226 104.649 471.106 95.584"/>
    <path class="st5" d="M553.291,30.926c-6.566,0-14.269,1.141-22.826,3.425l-19.707,18.409,67.545,44.2,6.923,4.682-3.729,3.898-1.75,1.732-66.097,65.224c11.515,4.156,21.689,5.393,31.368,5.393,45.943,0,63.35-32.533,63.35-76.191,0-37.098-13.979-70.772-55.077-70.772Z"/>
    <polygon class="st2" points="471.106 214.7 450.562 222.688 451.702 237.241 533.315 237.241 534.459 221.834 510.774 214.7 510.517 175.587 471.106 214.478 471.106 214.7"/>
    <polygon class="st9" points="470.764 214.816 471.106 214.478 471.106 214.427 470.764 214.816"/>
  </g>
  <path class="st11" d="M621.17,54.227c-1.639,0-3.143-.276-4.514-.829-1.372-.553-2.564-1.335-3.577-2.349-1.014-1.013-1.797-2.205-2.349-3.577-.553-1.372-.829-2.876-.829-4.514,0-1.556.281-3.014.844-4.375.563-1.361,1.356-2.559,2.38-3.592s2.221-1.842,3.593-2.426c1.371-.583,2.855-.875,4.452-.875,1.555,0,3.014.276,4.375.829,1.361.552,2.559,1.335,3.593,2.349,1.033,1.013,1.842,2.206,2.426,3.577.583,1.372.875,2.876.875,4.514s-.276,3.142-.829,4.514-1.336,2.563-2.35,3.577c-1.013,1.014-2.205,1.796-3.576,2.349-1.372.553-2.877.829-4.514.829ZM621.17,52.262c1.678,0,3.208-.399,4.59-1.197s2.482-1.893,3.301-3.286c.818-1.392,1.229-2.999,1.229-4.82,0-1.29-.23-2.497-.691-3.623-.46-1.125-1.101-2.119-1.919-2.979s-1.786-1.53-2.901-2.011c-1.116-.48-2.318-.722-3.607-.722-1.761,0-3.332.399-4.714,1.198-1.381.798-2.472,1.899-3.27,3.301-.799,1.402-1.197,3.014-1.197,4.836s.394,3.429,1.182,4.82c.788,1.393,1.868,2.487,3.239,3.286s2.958,1.197,4.76,1.197ZM616.81,49.683v-13.571h4.084c1.678,0,2.906.358,3.685,1.075.777.717,1.166,1.73,1.166,3.04,0,.962-.245,1.725-.736,2.288s-1.044.967-1.658,1.213l3.562,5.957h-2.794l-2.917-5.158h-1.903v5.158h-2.487ZM619.297,42.468h1.535c.798,0,1.396-.2,1.796-.599.399-.399.599-.926.599-1.581,0-.716-.18-1.238-.537-1.566-.358-.327-.988-.491-1.889-.491h-1.504v4.237Z"/>
</svg>