<?xml version="1.0" encoding="utf-8" standalone="no"?>
<!DOCTYPE svg PUBLIC "-//W3C//DTD SVG 1.1//EN"
  "http://www.w3.org/Graphics/SVG/1.1/DTD/svg11.dtd">
<svg xmlns:xlink="http://www.w3.org/1999/xlink" width="576pt" height="302.4pt" viewBox="0 0 576 302.4" xmlns="http://www.w3.org/2000/svg" version="1.1">
 <metadata>
  <rdf:RDF xmlns:dc="http://purl.org/dc/elements/1.1/" xmlns:cc="http://creativecommons.org/ns#" xmlns:rdf="http://www.w3.org/1999/02/22-rdf-syntax-ns#">
   <cc:Work>
    <dc:type rdf:resource="http://purl.org/dc/dcmitype/StillImage"/>
    <dc:date>2026-08-18T00:59:12.375642</dc:date>
    <dc:format>image/svg+xml</dc:format>
    <dc:creator>
     <cc:Agent>
      <dc:title>Matplotlib v3.11.1, https://matplotlib.org/</dc:title>
     </cc:Agent>
    </dc:creator>
   </cc:Work>
  </rdf:RDF>
 </metadata>
 <defs>
  <style type="text/css">*{stroke-linejoin: round; stroke-linecap: butt}</style>
 </defs>
 <g id="figure_1">
  <g id="patch_1">
   <path d="M 0 302.4 
L 576 302.4 
L 576 0 
L 0 0 
z
" style="fill: #f5f8fc"/>
  </g>
  <g id="axes_1">
   <g id="patch_2">
    <path d="M 27.98 275.39541 
L 559.982673 275.39541 
L 559.982673 71.7 
L 27.98 71.7 
z
" style="fill: #f5f8fc"/>
   </g>
   <g id="matplotlib.axis_1">
    <g id="xtick_1">
     <g id="line2d_1"/>
     <g id="text_1">
      <!-- 2021 -->
      <g style="fill: #55607a" transform="translate(51.108064 289.067285) scale(0.105 -0.105)">
       <defs>
        <path id="Inter-Regular-104" d="M 481 0 
L 481 428 
L 2028 2106 
Q 2288 2388 2459 2600 
Q 2631 2813 2718 3005 
Q 2806 3197 2806 3413 
Q 2806 3656 2690 3834 
Q 2575 4013 2378 4108 
Q 2181 4203 1931 4203 
Q 1666 4203 1470 4095 
Q 1275 3988 1169 3792 
Q 1063 3597 1063 3334 
L 494 3334 
Q 494 3747 684 4059 
Q 875 4372 1203 4545 
Q 1531 4719 1947 4719 
Q 2363 4719 2683 4545 
Q 3003 4372 3186 4078 
Q 3369 3784 3369 3419 
Q 3369 3166 3278 2927 
Q 3188 2688 2959 2384 
Q 2731 2081 2319 1644 
L 1300 559 
L 1300 522 
L 3447 522 
L 3447 0 
L 481 0 
z
" transform="scale(0.015625)"/>
        <path id="Inter-Regular-102" d="M 2019 -63 
Q 1500 -63 1134 218 
Q 769 500 575 1033 
Q 381 1566 381 2325 
Q 381 3081 576 3615 
Q 772 4150 1137 4434 
Q 1503 4719 2019 4719 
Q 2534 4719 2901 4434 
Q 3269 4150 3462 3615 
Q 3656 3081 3656 2325 
Q 3656 1569 3464 1034 
Q 3272 500 2906 218 
Q 2541 -63 2019 -63 
z
M 2019 456 
Q 2359 456 2596 678 
Q 2834 900 2959 1317 
Q 3084 1734 3084 2325 
Q 3084 2919 2959 3339 
Q 2834 3759 2596 3981 
Q 2359 4203 2019 4203 
Q 1678 4203 1440 3979 
Q 1203 3756 1078 3337 
Q 953 2919 953 2325 
Q 953 1734 1078 1317 
Q 1203 900 1440 678 
Q 1678 456 2019 456 
z
" transform="scale(0.015625)"/>
        <path id="Inter-Regular-103" d="M 2041 4656 
L 2041 0 
L 1456 0 
L 1456 4106 
L 1425 4106 
L 300 3272 
L 300 3909 
L 1313 4656 
L 2041 4656 
z
" transform="scale(0.015625)"/>
       </defs>
       <use xlink:href="#Inter-Regular-104"/>
       <use xlink:href="#Inter-Regular-102" transform="translate(60.984375 0)"/>
       <use xlink:href="#Inter-Regular-104" transform="translate(124.078125 0)"/>
       <use xlink:href="#Inter-Regular-103" transform="translate(185.0625 0)"/>
      </g>
     </g>
    </g>
    <g id="xtick_2">
     <g id="line2d_2"/>
     <g id="text_2">
      <!-- 2022 -->
      <g style="fill: #55607a" transform="translate(133.488575 289.067285) scale(0.105 -0.105)">
       <use xlink:href="#Inter-Regular-104"/>
       <use xlink:href="#Inter-Regular-102" transform="translate(60.984375 0)"/>
       <use xlink:href="#Inter-Regular-104" transform="translate(124.078125 0)"/>
       <use xlink:href="#Inter-Regular-104" transform="translate(185.0625 0)"/>
      </g>
     </g>
    </g>
    <g id="xtick_3">
     <g id="line2d_3"/>
     <g id="text_3">
      <!-- 2023 -->
      <g style="fill: #55607a" transform="translate(216.894476 289.067285) scale(0.105 -0.105)">
       <defs>
        <path id="Inter-Regular-105" d="M 1984 -63 
Q 1528 -63 1175 93 
Q 822 250 614 528 
Q 406 806 391 1175 
L 991 1175 
Q 1009 953 1142 792 
Q 1275 631 1492 545 
Q 1709 459 1975 459 
Q 2269 459 2495 561 
Q 2722 663 2853 847 
Q 2984 1031 2984 1272 
Q 2984 1525 2857 1717 
Q 2731 1909 2490 2018 
Q 2250 2128 1903 2128 
L 1525 2128 
L 1525 2644 
L 1903 2644 
Q 2175 2644 2383 2742 
Q 2591 2841 2706 3019 
Q 2822 3197 2822 3438 
Q 2822 3669 2720 3841 
Q 2619 4013 2431 4108 
Q 2244 4203 1991 4203 
Q 1753 4203 1545 4117 
Q 1338 4031 1205 3872 
Q 1072 3713 1063 3484 
L 491 3484 
Q 503 3850 709 4128 
Q 916 4406 1255 4562 
Q 1594 4719 2003 4719 
Q 2438 4719 2752 4544 
Q 3066 4369 3234 4084 
Q 3403 3800 3403 3469 
Q 3403 3075 3195 2800 
Q 2988 2525 2631 2419 
L 2631 2381 
Q 2928 2334 3139 2181 
Q 3350 2028 3461 1793 
Q 3572 1559 3572 1266 
Q 3572 884 3365 584 
Q 3159 284 2800 110 
Q 2441 -63 1984 -63 
z
" transform="scale(0.015625)"/>
       </defs>
       <use xlink:href="#Inter-Regular-104"/>
       <use xlink:href="#Inter-Regular-102" transform="translate(60.984375 0)"/>
       <use xlink:href="#Inter-Regular-104" transform="translate(124.078125 0)"/>
       <use xlink:href="#Inter-Regular-105" transform="translate(185.0625 0)"/>
      </g>
     </g>
    </g>
    <g id="xtick_4">
     <g id="line2d_4"/>
     <g id="text_4">
      <!-- 2024 -->
      <g style="fill: #55607a" transform="translate(300.274947 289.067285) scale(0.105 -0.105)">
       <defs>
        <path id="Inter-Regular-106" d="M 375 947 
L 375 1431 
L 2413 4656 
L 2772 4656 
L 2772 3913 
L 2531 3913 
L 1009 1506 
L 1009 1469 
L 3766 1469 
L 3766 947 
L 375 947 
z
M 2566 0 
L 2566 1091 
L 2569 1319 
L 2569 4656 
L 3134 4656 
L 3134 0 
L 2566 0 
z
" transform="scale(0.015625)"/>
       </defs>
       <use xlink:href="#Inter-Regular-104"/>
       <use xlink:href="#Inter-Regular-102" transform="translate(60.984375 0)"/>
       <use xlink:href="#Inter-Regular-104" transform="translate(124.078125 0)"/>
       <use xlink:href="#Inter-Regular-106" transform="translate(183.5 0)"/>
      </g>
     </g>
    </g>
    <g id="xtick_5">
     <g id="line2d_5"/>
     <g id="text_5">
      <!-- 2025 -->
      <g style="fill: #55607a" transform="translate(384.1449 289.067285) scale(0.105 -0.105)">
       <defs>
        <path id="Inter-Regular-107" d="M 1863 -63 
Q 1453 -63 1128 98 
Q 803 259 609 539 
Q 416 819 400 1175 
L 975 1175 
Q 994 969 1116 806 
Q 1238 644 1433 551 
Q 1628 459 1863 459 
Q 2144 459 2364 590 
Q 2584 722 2709 953 
Q 2834 1184 2834 1478 
Q 2834 1778 2703 2015 
Q 2572 2253 2345 2389 
Q 2119 2525 1825 2525 
Q 1609 2525 1387 2456 
Q 1166 2388 1028 2281 
L 472 2350 
L 747 4656 
L 3197 4656 
L 3197 4134 
L 1247 4134 
L 1088 2775 
L 1113 2775 
Q 1256 2894 1475 2970 
Q 1694 3047 1934 3047 
Q 2253 3047 2523 2931 
Q 2794 2816 2994 2605 
Q 3194 2394 3305 2109 
Q 3416 1825 3416 1488 
Q 3416 1041 3214 691 
Q 3013 341 2663 139 
Q 2313 -63 1863 -63 
z
" transform="scale(0.015625)"/>
       </defs>
       <use xlink:href="#Inter-Regular-104"/>
       <use xlink:href="#Inter-Regular-102" transform="translate(60.984375 0)"/>
       <use xlink:href="#Inter-Regular-104" transform="translate(124.078125 0)"/>
       <use xlink:href="#Inter-Regular-107" transform="translate(185.0625 0)"/>
      </g>
     </g>
    </g>
    <g id="xtick_6">
     <g id="line2d_6"/>
     <g id="text_6">
      <!-- 2026 -->
      <g style="fill: #55607a" transform="translate(467.450723 289.067285) scale(0.105 -0.105)">
       <defs>
        <path id="Inter-Regular-108" d="M 2019 -63 
Q 1728 -63 1437 43 
Q 1147 150 908 400 
Q 669 650 525 1078 
Q 381 1506 381 2150 
Q 381 2766 498 3242 
Q 616 3719 839 4048 
Q 1063 4378 1378 4548 
Q 1694 4719 2091 4719 
Q 2481 4719 2790 4562 
Q 3100 4406 3297 4128 
Q 3494 3850 3550 3484 
L 2969 3484 
Q 2891 3788 2672 3991 
Q 2453 4194 2091 4194 
Q 1734 4194 1476 3984 
Q 1219 3775 1081 3379 
Q 944 2984 944 2425 
L 981 2425 
Q 1106 2619 1281 2758 
Q 1456 2897 1672 2970 
Q 1888 3044 2128 3044 
Q 2528 3044 2859 2847 
Q 3191 2650 3389 2301 
Q 3588 1953 3588 1503 
Q 3588 1069 3394 714 
Q 3200 359 2847 148 
Q 2494 -63 2019 -63 
z
M 2019 459 
Q 2300 459 2525 600 
Q 2750 741 2881 977 
Q 3013 1213 3013 1503 
Q 3013 1788 2886 2020 
Q 2759 2253 2537 2390 
Q 2316 2528 2034 2528 
Q 1822 2528 1639 2445 
Q 1456 2363 1318 2217 
Q 1181 2072 1104 1886 
Q 1028 1700 1028 1497 
Q 1028 1222 1156 986 
Q 1284 750 1509 604 
Q 1734 459 2019 459 
z
" transform="scale(0.015625)"/>
       </defs>
       <use xlink:href="#Inter-Regular-104"/>
       <use xlink:href="#Inter-Regular-102" transform="translate(60.984375 0)"/>
       <use xlink:href="#Inter-Regular-104" transform="translate(124.078125 0)"/>
       <use xlink:href="#Inter-Regular-108" transform="translate(185.0625 0)"/>
      </g>
     </g>
    </g>
   </g>
   <g id="matplotlib.axis_2">
    <g id="ytick_1">
     <g id="line2d_7">
      <path d="M 27.98 275.39541 
L 559.982673 275.39541 
" clip-path="url(#p62d7509afe)" style="fill: none; stroke: #dfe6f1; stroke-linecap: square"/>
     </g>
     <g id="line2d_8"/>
     <g id="text_7">
      <!-- 0 -->
      <g style="fill: #55607a" transform="translate(17.855156 280.481348) scale(0.105 -0.105)">
       <use xlink:href="#Inter-Regular-102"/>
      </g>
     </g>
    </g>
    <g id="ytick_2">
     <g id="line2d_9">
      <path d="M 27.98 247.104381 
L 559.982673 247.104381 
" clip-path="url(#p62d7509afe)" style="fill: none; stroke: #dfe6f1; stroke-linecap: square"/>
     </g>
     <g id="line2d_10"/>
     <g id="text_8">
      <!-- 10 -->
      <g style="fill: #55607a" transform="translate(13.584609 252.190318) scale(0.105 -0.105)">
       <use xlink:href="#Inter-Regular-103"/>
       <use xlink:href="#Inter-Regular-102" transform="translate(40.671875 0)"/>
      </g>
     </g>
    </g>
    <g id="ytick_3">
     <g id="line2d_11">
      <path d="M 27.98 218.813352 
L 559.982673 218.813352 
" clip-path="url(#p62d7509afe)" style="fill: none; stroke: #dfe6f1; stroke-linecap: square"/>
     </g>
     <g id="line2d_12"/>
     <g id="text_9">
      <!-- 20 -->
      <g style="fill: #55607a" transform="translate(11.451797 223.899289) scale(0.105 -0.105)">
       <use xlink:href="#Inter-Regular-104"/>
       <use xlink:href="#Inter-Regular-102" transform="translate(60.984375 0)"/>
      </g>
     </g>
    </g>
    <g id="ytick_4">
     <g id="line2d_13">
      <path d="M 27.98 190.522323 
L 559.982673 190.522323 
" clip-path="url(#p62d7509afe)" style="fill: none; stroke: #dfe6f1; stroke-linecap: square"/>
     </g>
     <g id="line2d_14"/>
     <g id="text_10">
      <!-- 30 -->
      <g style="fill: #55607a" transform="translate(11.369766 195.60826) scale(0.105 -0.105)">
       <use xlink:href="#Inter-Regular-105"/>
       <use xlink:href="#Inter-Regular-102" transform="translate(61.765625 0)"/>
      </g>
     </g>
    </g>
    <g id="ytick_5">
     <g id="line2d_15">
      <path d="M 27.98 162.231293 
L 559.982673 162.231293 
" clip-path="url(#p62d7509afe)" style="fill: none; stroke: #dfe6f1; stroke-linecap: square"/>
     </g>
     <g id="line2d_16"/>
     <g id="text_11">
      <!-- 40 -->
      <g style="fill: #55607a" transform="translate(11.072813 167.317231) scale(0.105 -0.105)">
       <use xlink:href="#Inter-Regular-106"/>
       <use xlink:href="#Inter-Regular-102" transform="translate(64.59375 0)"/>
      </g>
     </g>
    </g>
    <g id="ytick_6">
     <g id="line2d_17">
      <path d="M 27.98 133.940264 
L 559.982673 133.940264 
" clip-path="url(#p62d7509afe)" style="fill: none; stroke: #dfe6f1; stroke-linecap: square"/>
     </g>
     <g id="line2d_18"/>
     <g id="text_12">
      <!-- 50 -->
      <g style="fill: #55607a" transform="translate(11.625703 139.026202) scale(0.105 -0.105)">
       <use xlink:href="#Inter-Regular-107"/>
       <use xlink:href="#Inter-Regular-102" transform="translate(59.328125 0)"/>
      </g>
     </g>
    </g>
    <g id="ytick_7">
     <g id="line2d_19">
      <path d="M 27.98 105.649235 
L 559.982673 105.649235 
" clip-path="url(#p62d7509afe)" style="fill: none; stroke: #dfe6f1; stroke-linecap: square"/>
     </g>
     <g id="line2d_20"/>
     <g id="text_13">
      <!-- 60 -->
      <g style="fill: #55607a" transform="translate(11.343516 110.735173) scale(0.105 -0.105)">
       <use xlink:href="#Inter-Regular-108"/>
       <use xlink:href="#Inter-Regular-102" transform="translate(62.015625 0)"/>
      </g>
     </g>
    </g>
    <g id="ytick_8">
     <g id="line2d_21">
      <path d="M 27.98 77.358206 
L 559.982673 77.358206 
" clip-path="url(#p62d7509afe)" style="fill: none; stroke: #dfe6f1; stroke-linecap: square"/>
     </g>
     <g id="line2d_22"/>
     <g id="text_14">
      <!-- 70 -->
      <g style="fill: #55607a" transform="translate(12.076875 82.444143) scale(0.105 -0.105)">
       <defs>
        <path id="Inter-Regular-109" d="M 625 0 
L 2694 4097 
L 2694 4134 
L 306 4134 
L 306 4656 
L 3316 4656 
L 3316 4103 
L 1250 0 
L 625 0 
z
" transform="scale(0.015625)"/>
       </defs>
       <use xlink:href="#Inter-Regular-109"/>
       <use xlink:href="#Inter-Regular-102" transform="translate(55.03125 0)"/>
      </g>
     </g>
    </g>
   </g>
   <g id="FillBetweenPolyCollection_1">
    <defs>
     <path id="mbb04fe5fc8" d="M 46.498357 -27.00459 
L 46.498357 -29.833693 
L 50.384926 -29.833693 
L 50.384926 -32.662796 
L 54.728738 -32.662796 
L 54.728738 -35.491899 
L 55.871846 -35.491899 
L 55.871846 -38.321002 
L 55.871846 -38.321002 
L 55.871846 -41.150104 
L 55.871846 -41.150104 
L 55.871846 -43.979207 
L 55.871846 -43.979207 
L 55.871846 -46.80831 
L 55.871846 -46.80831 
L 55.871846 -49.637413 
L 70.960878 -49.637413 
L 70.960878 -52.466516 
L 70.960878 -52.466516 
L 70.960878 -55.295619 
L 70.960878 -55.295619 
L 70.960878 -58.124722 
L 71.646743 -58.124722 
L 71.646743 -60.953825 
L 78.276772 -60.953825 
L 78.276772 -63.782928 
L 78.276772 -63.782928 
L 78.276772 -66.612031 
L 85.135423 -66.612031 
L 85.135423 -69.441134 
L 108.683457 -69.441134 
L 108.683457 -72.270237 
L 116.913837 -72.270237 
L 116.913837 -75.099339 
L 161.266445 -75.099339 
L 161.266445 -77.928442 
L 179.784802 -77.928442 
L 179.784802 -80.757545 
L 192.358995 -80.757545 
L 192.358995 -83.586648 
L 194.187969 -83.586648 
L 194.187969 -86.415751 
L 200.132133 -86.415751 
L 200.132133 -89.244854 
L 200.132133 -89.244854 
L 200.132133 -92.073957 
L 203.332836 -92.073957 
L 203.332836 -94.90306 
L 205.390432 -94.90306 
L 205.390432 -97.732163 
L 216.364273 -97.732163 
L 216.364273 -100.561266 
L 220.936706 -100.561266 
L 220.936706 -103.390369 
L 220.936706 -103.390369 
L 220.936706 -106.219472 
L 220.936706 -106.219472 
L 220.936706 -109.048574 
L 221.165328 -109.048574 
L 221.165328 -111.877677 
L 221.851193 -111.877677 
L 221.851193 -114.70678 
L 221.851193 -114.70678 
L 221.851193 -117.535883 
L 225.737762 -117.535883 
L 225.737762 -120.364986 
L 225.737762 -120.364986 
L 225.737762 -123.194089 
L 242.655767 -123.194089 
L 242.655767 -126.023192 
L 250.200283 -126.023192 
L 250.200283 -128.852295 
L 255.687203 -128.852295 
L 255.687203 -131.681398 
L 265.289314 -131.681398 
L 265.289314 -134.510501 
L 268.490018 -134.510501 
L 268.490018 -137.339604 
L 276.491777 -137.339604 
L 276.491777 -140.168707 
L 291.352187 -140.168707 
L 291.352187 -142.99781 
L 300.954298 -142.99781 
L 300.954298 -145.826912 
L 358.795586 -145.826912 
L 358.795586 -148.656015 
L 366.340101 -148.656015 
L 366.340101 -151.485118 
L 411.835818 -151.485118 
L 411.835818 -154.314221 
L 416.636873 -154.314221 
L 416.636873 -157.143324 
L 426.010363 -157.143324 
L 426.010363 -159.972427 
L 436.52696 -159.972427 
L 436.52696 -162.80153 
L 438.813177 -162.80153 
L 438.813177 -165.630633 
L 446.129071 -165.630633 
L 446.129071 -168.459736 
L 458.931886 -168.459736 
L 458.931886 -171.288839 
L 509.000036 -171.288839 
L 509.000036 -174.117942 
L 509.228658 -174.117942 
L 509.228658 -176.947045 
L 519.973877 -176.947045 
L 519.973877 -179.776147 
L 520.431121 -179.776147 
L 520.431121 -182.60525 
L 520.431121 -182.60525 
L 520.431121 -185.434353 
L 522.260094 -185.434353 
L 522.260094 -188.263456 
L 523.174581 -188.263456 
L 523.174581 -191.092559 
L 526.603906 -191.092559 
L 526.603906 -193.921662 
L 526.603906 -193.921662 
L 526.603906 -196.750765 
L 527.06115 -196.750765 
L 527.06115 -199.579868 
L 528.204258 -199.579868 
L 528.204258 -202.408971 
L 528.890123 -202.408971 
L 528.890123 -205.238074 
L 529.80461 -205.238074 
L 529.80461 -208.067177 
L 535.977396 -208.067177 
L 535.977396 -208.067177 
L 535.977396 -27.00459 
L 535.977396 -27.00459 
L 535.977396 -27.00459 
L 529.80461 -27.00459 
L 529.80461 -27.00459 
L 528.890123 -27.00459 
L 528.890123 -27.00459 
L 528.204258 -27.00459 
L 528.204258 -27.00459 
L 527.06115 -27.00459 
L 527.06115 -27.00459 
L 526.603906 -27.00459 
L 526.603906 -27.00459 
L 526.603906 -27.00459 
L 526.603906 -27.00459 
L 523.174581 -27.00459 
L 523.174581 -27.00459 
L 522.260094 -27.00459 
L 522.260094 -27.00459 
L 520.431121 -27.00459 
L 520.431121 -27.00459 
L 520.431121 -27.00459 
L 520.431121 -27.00459 
L 519.973877 -27.00459 
L 519.973877 -27.00459 
L 509.228658 -27.00459 
L 509.228658 -27.00459 
L 509.000036 -27.00459 
L 509.000036 -27.00459 
L 458.931886 -27.00459 
L 458.931886 -27.00459 
L 446.129071 -27.00459 
L 446.129071 -27.00459 
L 438.813177 -27.00459 
L 438.813177 -27.00459 
L 436.52696 -27.00459 
L 436.52696 -27.00459 
L 426.010363 -27.00459 
L 426.010363 -27.00459 
L 416.636873 -27.00459 
L 416.636873 -27.00459 
L 411.835818 -27.00459 
L 411.835818 -27.00459 
L 366.340101 -27.00459 
L 366.340101 -27.00459 
L 358.795586 -27.00459 
L 358.795586 -27.00459 
L 300.954298 -27.00459 
L 300.954298 -27.00459 
L 291.352187 -27.00459 
L 291.352187 -27.00459 
L 276.491777 -27.00459 
L 276.491777 -27.00459 
L 268.490018 -27.00459 
L 268.490018 -27.00459 
L 265.289314 -27.00459 
L 265.289314 -27.00459 
L 255.687203 -27.00459 
L 255.687203 -27.00459 
L 250.200283 -27.00459 
L 250.200283 -27.00459 
L 242.655767 -27.00459 
L 242.655767 -27.00459 
L 225.737762 -27.00459 
L 225.737762 -27.00459 
L 225.737762 -27.00459 
L 225.737762 -27.00459 
L 221.851193 -27.00459 
L 221.851193 -27.00459 
L 221.851193 -27.00459 
L 221.851193 -27.00459 
L 221.165328 -27.00459 
L 221.165328 -27.00459 
L 220.936706 -27.00459 
L 220.936706 -27.00459 
L 220.936706 -27.00459 
L 220.936706 -27.00459 
L 220.936706 -27.00459 
L 220.936706 -27.00459 
L 216.364273 -27.00459 
L 216.364273 -27.00459 
L 205.390432 -27.00459 
L 205.390432 -27.00459 
L 203.332836 -27.00459 
L 203.332836 -27.00459 
L 200.132133 -27.00459 
L 200.132133 -27.00459 
L 200.132133 -27.00459 
L 200.132133 -27.00459 
L 194.187969 -27.00459 
L 194.187969 -27.00459 
L 192.358995 -27.00459 
L 192.358995 -27.00459 
L 179.784802 -27.00459 
L 179.784802 -27.00459 
L 161.266445 -27.00459 
L 161.266445 -27.00459 
L 116.913837 -27.00459 
L 116.913837 -27.00459 
L 108.683457 -27.00459 
L 108.683457 -27.00459 
L 85.135423 -27.00459 
L 85.135423 -27.00459 
L 78.276772 -27.00459 
L 78.276772 -27.00459 
L 78.276772 -27.00459 
L 78.276772 -27.00459 
L 71.646743 -27.00459 
L 71.646743 -27.00459 
L 70.960878 -27.00459 
L 70.960878 -27.00459 
L 70.960878 -27.00459 
L 70.960878 -27.00459 
L 70.960878 -27.00459 
L 70.960878 -27.00459 
L 55.871846 -27.00459 
L 55.871846 -27.00459 
L 55.871846 -27.00459 
L 55.871846 -27.00459 
L 55.871846 -27.00459 
L 55.871846 -27.00459 
L 55.871846 -27.00459 
L 55.871846 -27.00459 
L 55.871846 -27.00459 
L 55.871846 -27.00459 
L 54.728738 -27.00459 
L 54.728738 -27.00459 
L 50.384926 -27.00459 
L 50.384926 -27.00459 
L 46.498357 -27.00459 
z
"/>
    </defs>
    <g clip-path="url(#p62d7509afe)">
     <use xlink:href="#mbb04fe5fc8" x="0" y="302.4" style="fill: #22c7e6; fill-opacity: 0.14"/>
    </g>
   </g>
   <g id="line2d_23">
    <path d="M 46.498357 272.566307 
L 50.384926 272.566307 
L 50.384926 269.737204 
L 54.728738 269.737204 
L 54.728738 266.908101 
L 55.871846 266.908101 
L 55.871846 252.762587 
L 70.960878 252.762587 
L 70.960878 244.275278 
L 71.646743 244.275278 
L 71.646743 241.446175 
L 78.276772 241.446175 
L 78.276772 235.787969 
L 85.135423 235.787969 
L 85.135423 232.958866 
L 108.683457 232.958866 
L 108.683457 230.129763 
L 116.913837 230.129763 
L 116.913837 227.300661 
L 161.266445 227.300661 
L 161.266445 224.471558 
L 179.784802 224.471558 
L 179.784802 221.642455 
L 192.358995 221.642455 
L 192.358995 218.813352 
L 194.187969 218.813352 
L 194.187969 215.984249 
L 200.132133 215.984249 
L 200.132133 210.326043 
L 203.332836 210.326043 
L 203.332836 207.49694 
L 205.390432 207.49694 
L 205.390432 204.667837 
L 216.364273 204.667837 
L 216.364273 201.838734 
L 220.936706 201.838734 
L 220.936706 193.351426 
L 221.165328 193.351426 
L 221.165328 190.522323 
L 221.851193 190.522323 
L 221.851193 184.864117 
L 225.737762 184.864117 
L 225.737762 179.205911 
L 242.655767 179.205911 
L 242.655767 176.376808 
L 250.200283 176.376808 
L 250.200283 173.547705 
L 255.687203 173.547705 
L 255.687203 170.718602 
L 265.289314 170.718602 
L 265.289314 167.889499 
L 268.490018 167.889499 
L 268.490018 165.060396 
L 276.491777 165.060396 
L 276.491777 162.231293 
L 291.352187 162.231293 
L 291.352187 159.40219 
L 300.954298 159.40219 
L 300.954298 156.573088 
L 358.795586 156.573088 
L 358.795586 153.743985 
L 366.340101 153.743985 
L 366.340101 150.914882 
L 411.835818 150.914882 
L 411.835818 148.085779 
L 416.636873 148.085779 
L 416.636873 145.256676 
L 426.010363 145.256676 
L 426.010363 142.427573 
L 436.52696 142.427573 
L 436.52696 139.59847 
L 438.813177 139.59847 
L 438.813177 136.769367 
L 446.129071 136.769367 
L 446.129071 133.940264 
L 458.931886 133.940264 
L 458.931886 131.111161 
L 509.000036 131.111161 
L 509.000036 128.282058 
L 509.228658 128.282058 
L 509.228658 125.452955 
L 519.973877 125.452955 
L 519.973877 122.623853 
L 520.431121 122.623853 
L 520.431121 116.965647 
L 522.260094 116.965647 
L 522.260094 114.136544 
L 523.174581 114.136544 
L 523.174581 111.307441 
L 526.603906 111.307441 
L 526.603906 105.649235 
L 527.06115 105.649235 
L 527.06115 102.820132 
L 528.204258 102.820132 
L 528.204258 99.991029 
L 528.890123 99.991029 
L 528.890123 97.161926 
L 529.80461 97.161926 
L 529.80461 94.332823 
L 535.977396 94.332823 
L 535.977396 94.332823 
" clip-path="url(#p62d7509afe)" style="fill: none; stroke: #1466a7; stroke-width: 2.4; stroke-linecap: round"/>
   </g>
   <g id="patch_3">
    <path d="M 27.98 275.39541 
L 559.982673 275.39541 
" style="fill: none; stroke: #dfe6f1; stroke-width: 0.8; stroke-linejoin: miter; stroke-linecap: square"/>
   </g>
   <g id="text_15">
    <!-- v0.1 -->
    <g style="fill: #55607a" transform="translate(184.810597 264.291988) scale(0.085 -0.085)">
     <defs>
      <path id="Inter-Regular-e6" d="M 1503 0 
L 169 3494 
L 784 3494 
L 1528 1422 
Q 1647 1100 1730 779 
Q 1813 459 1903 159 
L 1697 159 
Q 1788 459 1870 779 
Q 1953 1100 2069 1422 
L 2813 3494 
L 3428 3494 
L 2094 0 
L 1503 0 
z
" transform="scale(0.015625)"/>
      <path id="Inter-Regular-16b" d="M 922 -41 
Q 747 -41 623 82 
Q 500 206 500 381 
Q 500 556 623 679 
Q 747 803 922 803 
Q 1097 803 1220 679 
Q 1344 556 1344 381 
Q 1344 206 1220 82 
Q 1097 -41 922 -41 
z
" transform="scale(0.015625)"/>
     </defs>
     <use xlink:href="#Inter-Regular-e6"/>
     <use xlink:href="#Inter-Regular-102" transform="translate(56.203125 0)"/>
     <use xlink:href="#Inter-Regular-16b" transform="translate(116.765625 0)"/>
     <use xlink:href="#Inter-Regular-103" transform="translate(136.9375 0)"/>
    </g>
   </g>
   <g id="text_16">
    <!-- v0.2 -->
    <g style="fill: #55607a" transform="translate(198.897742 252.409756) scale(0.085 -0.085)">
     <use xlink:href="#Inter-Regular-e6"/>
     <use xlink:href="#Inter-Regular-102" transform="translate(56.203125 0)"/>
     <use xlink:href="#Inter-Regular-16b" transform="translate(116.765625 0)"/>
     <use xlink:href="#Inter-Regular-104" transform="translate(145.578125 0)"/>
    </g>
   </g>
   <g id="text_17">
    <!-- v0.3 -->
    <g style="fill: #55607a" transform="translate(257.048667 264.291988) scale(0.085 -0.085)">
     <use xlink:href="#Inter-Regular-e6"/>
     <use xlink:href="#Inter-Regular-102" transform="translate(56.203125 0)"/>
     <use xlink:href="#Inter-Regular-16b" transform="translate(116.765625 0)"/>
     <use xlink:href="#Inter-Regular-105" transform="translate(142.890625 0)"/>
    </g>
   </g>
   <g id="text_18">
    <!-- v0.4 -->
    <g style="fill: #55607a" transform="translate(267.330851 252.409756) scale(0.085 -0.085)">
     <use xlink:href="#Inter-Regular-e6"/>
     <use xlink:href="#Inter-Regular-102" transform="translate(56.203125 0)"/>
     <use xlink:href="#Inter-Regular-16b" transform="translate(116.765625 0)"/>
     <use xlink:href="#Inter-Regular-106" transform="translate(145.578125 0)"/>
    </g>
   </g>
   <g id="text_19">
    <!-- v0.5 -->
    <g style="fill: #55607a" transform="translate(349.918878 264.291988) scale(0.085 -0.085)">
     <use xlink:href="#Inter-Regular-e6"/>
     <use xlink:href="#Inter-Regular-102" transform="translate(56.203125 0)"/>
     <use xlink:href="#Inter-Regular-16b" transform="translate(116.765625 0)"/>
     <use xlink:href="#Inter-Regular-107" transform="translate(144.15625 0)"/>
    </g>
   </g>
   <g id="text_20">
    <!-- v0.6 -->
    <g style="fill: #55607a" transform="translate(359.225297 252.409756) scale(0.085 -0.085)">
     <use xlink:href="#Inter-Regular-e6"/>
     <use xlink:href="#Inter-Regular-102" transform="translate(56.203125 0)"/>
     <use xlink:href="#Inter-Regular-16b" transform="translate(116.765625 0)"/>
     <use xlink:href="#Inter-Regular-108" transform="translate(143.046875 0)"/>
    </g>
   </g>
   <g id="text_21">
    <!-- v0.7 -->
    <g style="fill: #55607a" transform="translate(402.389456 264.291988) scale(0.085 -0.085)">
     <use xlink:href="#Inter-Regular-e6"/>
     <use xlink:href="#Inter-Regular-102" transform="translate(56.203125 0)"/>
     <use xlink:href="#Inter-Regular-16b" transform="translate(116.765625 0)"/>
     <use xlink:href="#Inter-Regular-109" transform="translate(144.15625 0)"/>
    </g>
   </g>
   <g id="text_22">
    <!-- v0.8 -->
    <g style="fill: #55607a" transform="translate(441.295171 252.409756) scale(0.085 -0.085)">
     <defs>
      <path id="Inter-Regular-10a" d="M 1978 -63 
Q 1506 -63 1145 104 
Q 784 272 582 565 
Q 381 859 381 1238 
Q 381 1531 500 1782 
Q 619 2034 825 2203 
Q 1031 2372 1291 2419 
L 1291 2444 
Q 950 2531 750 2822 
Q 550 3113 550 3481 
Q 550 3838 734 4117 
Q 919 4397 1241 4558 
Q 1563 4719 1978 4719 
Q 2388 4719 2709 4558 
Q 3031 4397 3217 4117 
Q 3403 3838 3403 3481 
Q 3403 3113 3201 2822 
Q 3000 2531 2669 2444 
L 2669 2419 
Q 2922 2372 3128 2203 
Q 3334 2034 3456 1782 
Q 3578 1531 3578 1238 
Q 3578 859 3373 565 
Q 3169 272 2808 104 
Q 2447 -63 1978 -63 
z
M 1978 453 
Q 2288 453 2513 554 
Q 2738 656 2861 839 
Q 2984 1022 2984 1269 
Q 2984 1528 2853 1726 
Q 2722 1925 2494 2039 
Q 2266 2153 1978 2153 
Q 1684 2153 1456 2039 
Q 1228 1925 1097 1726 
Q 966 1528 966 1269 
Q 966 1022 1087 839 
Q 1209 656 1437 554 
Q 1666 453 1978 453 
z
M 1978 2650 
Q 2225 2650 2415 2748 
Q 2606 2847 2717 3025 
Q 2828 3203 2828 3438 
Q 2828 3672 2722 3844 
Q 2616 4016 2423 4111 
Q 2231 4206 1978 4206 
Q 1722 4206 1530 4111 
Q 1338 4016 1231 3844 
Q 1125 3672 1125 3438 
Q 1125 3203 1233 3025 
Q 1341 2847 1534 2748 
Q 1728 2650 1978 2650 
z
" transform="scale(0.015625)"/>
     </defs>
     <use xlink:href="#Inter-Regular-e6"/>
     <use xlink:href="#Inter-Regular-102" transform="translate(56.203125 0)"/>
     <use xlink:href="#Inter-Regular-16b" transform="translate(116.765625 0)"/>
     <use xlink:href="#Inter-Regular-10a" transform="translate(143.328125 0)"/>
    </g>
   </g>
   <g id="text_23">
    <!-- v0.9 -->
    <g style="fill: #55607a" transform="translate(465.227402 264.291988) scale(0.085 -0.085)">
     <defs>
      <path id="Inter-Regular-10b" d="M 1884 -63 
Q 1488 -63 1178 93 
Q 869 250 672 531 
Q 475 813 419 1184 
L 1006 1184 
Q 1078 875 1297 669 
Q 1516 463 1884 463 
Q 2241 463 2497 672 
Q 2753 881 2892 1278 
Q 3031 1675 3031 2238 
L 2994 2238 
Q 2869 2047 2694 1908 
Q 2519 1769 2305 1692 
Q 2091 1616 1847 1616 
Q 1447 1616 1112 1814 
Q 778 2013 579 2361 
Q 381 2709 381 3156 
Q 381 3591 578 3948 
Q 775 4306 1129 4517 
Q 1484 4728 1963 4719 
Q 2250 4716 2537 4608 
Q 2825 4500 3062 4253 
Q 3300 4006 3444 3581 
Q 3588 3156 3588 2513 
Q 3588 1894 3470 1416 
Q 3353 938 3131 608 
Q 2909 278 2593 107 
Q 2278 -63 1884 -63 
z
M 1934 2134 
Q 2147 2134 2331 2218 
Q 2516 2303 2653 2448 
Q 2791 2594 2869 2780 
Q 2947 2966 2947 3172 
Q 2947 3441 2817 3673 
Q 2688 3906 2464 4051 
Q 2241 4197 1953 4197 
Q 1672 4197 1448 4058 
Q 1225 3919 1094 3683 
Q 963 3447 963 3159 
Q 963 2875 1089 2642 
Q 1216 2409 1434 2271 
Q 1653 2134 1934 2134 
z
" transform="scale(0.015625)"/>
     </defs>
     <use xlink:href="#Inter-Regular-e6"/>
     <use xlink:href="#Inter-Regular-102" transform="translate(56.203125 0)"/>
     <use xlink:href="#Inter-Regular-16b" transform="translate(116.765625 0)"/>
     <use xlink:href="#Inter-Regular-10b" transform="translate(144.890625 0)"/>
    </g>
   </g>
   <g id="text_24">
    <!-- v0.10 -->
    <g style="fill: #55607a" transform="translate(522.318187 252.409756) scale(0.085 -0.085)">
     <use xlink:href="#Inter-Regular-e6"/>
     <use xlink:href="#Inter-Regular-102" transform="translate(56.203125 0)"/>
     <use xlink:href="#Inter-Regular-16b" transform="translate(116.765625 0)"/>
     <use xlink:href="#Inter-Regular-103" transform="translate(136.9375 0)"/>
     <use xlink:href="#Inter-Regular-102" transform="translate(177.609375 0)"/>
    </g>
   </g>
   <g id="text_25">
    <!-- 64 -->
    <g style="fill: #101642" transform="translate(542.977396 99.332823) scale(0.15 -0.15)">
     <defs>
      <path id="FigtreeLight-Bold-83" d="M 1914 -77 
Q 1459 -77 1142 86 
Q 826 250 624 538 
Q 422 826 329 1206 
Q 237 1587 237 2029 
Q 237 2541 345 2998 
Q 454 3456 675 3808 
Q 896 4160 1241 4358 
Q 1587 4557 2074 4557 
Q 2426 4557 2762 4454 
Q 3098 4352 3366 4160 
L 2931 3520 
Q 2733 3661 2505 3725 
Q 2278 3789 2086 3789 
Q 1594 3789 1312 3353 
Q 1030 2918 1043 1978 
L 870 2099 
Q 1018 2451 1325 2662 
Q 1632 2874 2054 2874 
Q 2483 2874 2812 2675 
Q 3142 2477 3331 2134 
Q 3520 1792 3520 1370 
Q 3520 954 3321 624 
Q 3123 294 2761 108 
Q 2400 -77 1914 -77 
z
M 1914 666 
Q 2125 666 2291 762 
Q 2458 858 2554 1024 
Q 2650 1190 2650 1408 
Q 2650 1626 2554 1795 
Q 2458 1965 2291 2064 
Q 2125 2163 1914 2163 
Q 1702 2163 1532 2064 
Q 1363 1965 1267 1795 
Q 1171 1626 1171 1408 
Q 1171 1190 1267 1024 
Q 1363 858 1532 762 
Q 1702 666 1914 666 
z
" transform="scale(0.015625)"/>
      <path id="FigtreeLight-Bold-81" d="M 2253 0 
L 2253 883 
L 166 883 
L 166 1581 
L 2150 4480 
L 3078 4480 
L 3078 1632 
L 3859 1632 
L 3859 883 
L 3078 883 
L 3078 0 
L 2253 0 
z
M 1069 1632 
L 2253 1632 
L 2253 3366 
L 1069 1632 
z
" transform="scale(0.015625)"/>
     </defs>
     <use xlink:href="#FigtreeLight-Bold-83"/>
     <use xlink:href="#FigtreeLight-Bold-81" transform="translate(58 0)"/>
    </g>
   </g>
   <g id="text_26">
    <!-- Counted from when support for each format was merged -->
    <g style="fill: #55607a" transform="translate(27.98 64.570661) scale(0.115 -0.115)">
     <defs>
      <path id="Inter-Regular-12" d="M 2447 -63 
Q 1850 -63 1383 226 
Q 916 516 648 1052 
Q 381 1588 381 2325 
Q 381 3066 648 3602 
Q 916 4138 1383 4428 
Q 1850 4719 2447 4719 
Q 2800 4719 3114 4616 
Q 3428 4513 3678 4314 
Q 3928 4116 4095 3833 
Q 4263 3550 4325 3191 
L 3731 3191 
Q 3681 3431 3561 3612 
Q 3441 3794 3267 3919 
Q 3094 4044 2884 4106 
Q 2675 4169 2447 4169 
Q 2028 4169 1690 3956 
Q 1353 3744 1156 3333 
Q 959 2922 959 2325 
Q 959 1731 1157 1320 
Q 1356 909 1693 698 
Q 2031 488 2447 488 
Q 2675 488 2884 552 
Q 3094 616 3267 739 
Q 3441 863 3561 1045 
Q 3681 1228 3731 1466 
L 4325 1466 
Q 4266 1109 4098 828 
Q 3931 547 3681 347 
Q 3431 147 3117 42 
Q 2803 -63 2447 -63 
z
" transform="scale(0.015625)"/>
      <path id="Inter-Regular-c3" d="M 1916 -75 
Q 1441 -75 1083 150 
Q 725 375 525 781 
Q 325 1188 325 1725 
Q 325 2272 525 2680 
Q 725 3088 1083 3313 
Q 1441 3538 1916 3538 
Q 2394 3538 2753 3313 
Q 3113 3088 3313 2680 
Q 3513 2272 3513 1725 
Q 3513 1188 3313 781 
Q 3113 375 2753 150 
Q 2394 -75 1916 -75 
z
M 1916 428 
Q 2269 428 2497 609 
Q 2725 791 2834 1086 
Q 2944 1381 2944 1725 
Q 2944 2072 2834 2370 
Q 2725 2669 2497 2851 
Q 2269 3034 1916 3034 
Q 1566 3034 1341 2851 
Q 1116 2669 1006 2372 
Q 897 2075 897 1725 
Q 897 1381 1006 1086 
Q 1116 791 1341 609 
Q 1566 428 1916 428 
z
" transform="scale(0.015625)"/>
      <path id="Inter-Regular-dc" d="M 1678 -44 
Q 1325 -44 1058 101 
Q 791 247 642 540 
Q 494 834 494 1275 
L 494 3494 
L 1056 3494 
L 1056 1322 
Q 1056 919 1268 691 
Q 1481 463 1847 463 
Q 2097 463 2295 572 
Q 2494 681 2609 892 
Q 2725 1103 2725 1400 
L 2725 3494 
L 3291 3494 
L 3291 0 
L 2747 0 
L 2747 847 
L 2822 847 
Q 2659 356 2361 156 
Q 2063 -44 1678 -44 
z
" transform="scale(0.015625)"/>
      <path id="Inter-Regular-be" d="M 1056 2094 
L 1056 0 
L 494 0 
L 494 3494 
L 1034 3494 
L 1038 2647 
L 959 2647 
Q 1119 3131 1414 3334 
Q 1709 3538 2106 3538 
Q 2459 3538 2725 3392 
Q 2991 3247 3139 2955 
Q 3288 2663 3288 2219 
L 3288 0 
L 2725 0 
L 2725 2172 
Q 2725 2575 2514 2803 
Q 2303 3031 1938 3031 
Q 1688 3031 1488 2922 
Q 1288 2813 1172 2603 
Q 1056 2394 1056 2094 
z
" transform="scale(0.015625)"/>
      <path id="Inter-Regular-d9" d="M 1869 3494 
L 1869 3013 
L 63 3013 
L 63 3494 
L 1869 3494 
z
M 588 4325 
L 1150 4325 
L 1150 906 
Q 1150 672 1245 564 
Q 1341 456 1563 456 
Q 1616 456 1698 468 
Q 1781 481 1850 494 
L 1966 19 
Q 1878 -13 1767 -28 
Q 1656 -44 1547 -44 
Q 1094 -44 841 195 
Q 588 434 588 863 
L 588 4325 
z
" transform="scale(0.015625)"/>
      <path id="Inter-Regular-97" d="M 1963 -75 
Q 1456 -75 1089 150 
Q 722 375 523 778 
Q 325 1181 325 1719 
Q 325 2256 519 2665 
Q 713 3075 1067 3306 
Q 1422 3538 1897 3538 
Q 2175 3538 2445 3445 
Q 2716 3353 2936 3148 
Q 3156 2944 3287 2609 
Q 3419 2275 3419 1791 
L 3419 1556 
L 706 1556 
L 706 2031 
L 3116 2031 
L 2853 1856 
Q 2853 2200 2745 2467 
Q 2638 2734 2425 2886 
Q 2213 3038 1897 3038 
Q 1581 3038 1356 2883 
Q 1131 2728 1012 2479 
Q 894 2231 894 1947 
L 894 1631 
Q 894 1244 1028 973 
Q 1163 703 1405 564 
Q 1647 425 1966 425 
Q 2172 425 2340 484 
Q 2509 544 2631 664 
Q 2753 784 2819 963 
L 3363 813 
Q 3281 550 3087 350 
Q 2894 150 2608 37 
Q 2322 -75 1963 -75 
z
" transform="scale(0.015625)"/>
      <path id="Inter-Regular-95" d="M 1803 -75 
Q 1369 -75 1034 147 
Q 700 369 512 775 
Q 325 1181 325 1738 
Q 325 2291 514 2695 
Q 703 3100 1037 3319 
Q 1372 3538 1806 3538 
Q 2147 3538 2347 3425 
Q 2547 3313 2655 3170 
Q 2763 3028 2819 2934 
L 2863 2934 
L 2863 4656 
L 3425 4656 
L 3425 0 
L 2881 0 
L 2881 541 
L 2819 541 
Q 2763 444 2652 298 
Q 2541 153 2339 39 
Q 2138 -75 1803 -75 
z
M 1888 428 
Q 2206 428 2425 595 
Q 2644 763 2756 1059 
Q 2869 1356 2869 1744 
Q 2869 2131 2758 2420 
Q 2647 2709 2428 2871 
Q 2209 3034 1888 3034 
Q 1556 3034 1336 2862 
Q 1116 2691 1006 2398 
Q 897 2106 897 1744 
Q 897 1378 1008 1079 
Q 1119 781 1341 604 
Q 1563 428 1888 428 
z
" transform="scale(0.015625)"/>
      <path id="Inter-Regular-1cd" transform="scale(0.015625)"/>
      <path id="Inter-Regular-a0" d="M 2119 3494 
L 2119 3013 
L 63 3013 
L 63 3494 
L 2119 3494 
z
M 750 0 
L 750 3959 
Q 750 4263 892 4466 
Q 1034 4669 1262 4772 
Q 1491 4875 1744 4875 
Q 1944 4875 2075 4842 
Q 2206 4809 2269 4781 
L 2113 4300 
Q 2069 4316 1998 4334 
Q 1928 4353 1809 4353 
Q 1550 4353 1431 4220 
Q 1313 4088 1313 3834 
L 1313 0 
L 750 0 
z
" transform="scale(0.015625)"/>
      <path id="Inter-Regular-d2" d="M 494 0 
L 494 3494 
L 1038 3494 
L 1038 2956 
L 1075 2956 
Q 1172 3222 1420 3383 
Q 1669 3544 1981 3544 
Q 2044 3544 2130 3541 
Q 2216 3538 2266 3534 
L 2266 2969 
Q 2241 2975 2141 2987 
Q 2041 3000 1928 3000 
Q 1678 3000 1479 2895 
Q 1281 2791 1168 2608 
Q 1056 2425 1056 2188 
L 1056 0 
L 494 0 
z
" transform="scale(0.015625)"/>
      <path id="Inter-Regular-bb" d="M 494 0 
L 494 3494 
L 1041 3494 
L 1044 2713 
L 1000 2713 
Q 1072 2997 1226 3183 
Q 1381 3369 1589 3462 
Q 1797 3556 2022 3556 
Q 2403 3556 2639 3322 
Q 2875 3088 2944 2706 
L 2869 2706 
Q 2931 2969 3097 3159 
Q 3263 3350 3498 3453 
Q 3734 3556 4013 3556 
Q 4316 3556 4566 3425 
Q 4816 3294 4964 3028 
Q 5113 2763 5113 2356 
L 5113 0 
L 4550 0 
L 4550 2341 
Q 4550 2719 4337 2881 
Q 4125 3044 3844 3044 
Q 3609 3044 3439 2945 
Q 3269 2847 3176 2675 
Q 3084 2503 3084 2281 
L 3084 0 
L 2522 0 
L 2522 2397 
Q 2522 2688 2328 2866 
Q 2134 3044 1838 3044 
Q 1634 3044 1454 2948 
Q 1275 2853 1165 2665 
Q 1056 2478 1056 2200 
L 1056 0 
L 494 0 
z
" transform="scale(0.015625)"/>
      <path id="Inter-Regular-e9" d="M 1278 0 
L 219 3494 
L 816 3494 
L 1241 1969 
Q 1328 1656 1428 1261 
Q 1528 866 1625 366 
L 1528 366 
Q 1622 844 1719 1241 
Q 1816 1638 1906 1969 
L 2325 3494 
L 2925 3494 
L 3338 1969 
Q 3425 1647 3520 1251 
Q 3616 856 3709 366 
L 3609 366 
Q 3709 850 3807 1245 
Q 3906 1641 3997 1969 
L 4422 3494 
L 5019 3494 
L 3959 0 
L 3400 0 
L 2947 1581 
Q 2878 1822 2812 2072 
Q 2747 2322 2684 2584 
Q 2622 2847 2556 3119 
L 2681 3119 
Q 2619 2850 2555 2586 
Q 2491 2322 2425 2069 
Q 2359 1816 2291 1581 
L 1838 0 
L 1278 0 
z
" transform="scale(0.015625)"/>
      <path id="Inter-Regular-a4" d="M 1056 2094 
L 1056 0 
L 494 0 
L 494 4656 
L 1056 4656 
L 1056 2647 
L 959 2647 
Q 1119 3131 1414 3334 
Q 1709 3538 2106 3538 
Q 2459 3538 2726 3392 
Q 2994 3247 3142 2955 
Q 3291 2663 3291 2219 
L 3291 0 
L 2725 0 
L 2725 2172 
Q 2725 2575 2514 2803 
Q 2303 3031 1938 3031 
Q 1688 3031 1488 2922 
Q 1288 2813 1172 2603 
Q 1056 2394 1056 2094 
z
" transform="scale(0.015625)"/>
      <path id="Inter-Regular-d5" d="M 1681 -75 
Q 1322 -75 1042 29 
Q 763 134 581 340 
Q 400 547 338 847 
L 872 975 
Q 947 688 1155 553 
Q 1363 419 1675 419 
Q 2041 419 2258 575 
Q 2475 731 2475 947 
Q 2475 1128 2348 1248 
Q 2222 1369 1963 1428 
L 1381 1566 
Q 906 1678 675 1914 
Q 444 2150 444 2519 
Q 444 2819 612 3048 
Q 781 3278 1073 3408 
Q 1366 3538 1738 3538 
Q 2097 3538 2348 3430 
Q 2600 3322 2758 3133 
Q 2916 2944 2994 2697 
L 2484 2566 
Q 2413 2753 2245 2906 
Q 2078 3059 1741 3059 
Q 1428 3059 1220 2915 
Q 1013 2772 1013 2553 
Q 1013 2359 1153 2242 
Q 1294 2125 1600 2053 
L 2128 1928 
Q 2603 1816 2831 1580 
Q 3059 1344 3059 984 
Q 3059 678 2886 439 
Q 2713 200 2402 62 
Q 2091 -75 1681 -75 
z
" transform="scale(0.015625)"/>
      <path id="Inter-Regular-cf" d="M 494 -1306 
L 494 3494 
L 1038 3494 
L 1038 2934 
L 1100 2934 
Q 1159 3028 1265 3170 
Q 1372 3313 1572 3425 
Q 1772 3538 2113 3538 
Q 2550 3538 2883 3319 
Q 3216 3100 3405 2695 
Q 3594 2291 3594 1738 
Q 3594 1181 3406 775 
Q 3219 369 2886 147 
Q 2553 -75 2116 -75 
Q 1784 -75 1581 39 
Q 1378 153 1268 298 
Q 1159 444 1100 541 
L 1056 541 
L 1056 -1306 
L 494 -1306 
z
M 2031 428 
Q 2359 428 2579 604 
Q 2800 781 2911 1079 
Q 3022 1378 3022 1744 
Q 3022 2106 2912 2398 
Q 2803 2691 2583 2862 
Q 2363 3034 2031 3034 
Q 1709 3034 1490 2871 
Q 1272 2709 1161 2420 
Q 1050 2131 1050 1744 
Q 1050 1356 1162 1059 
Q 1275 763 1495 595 
Q 1716 428 2031 428 
z
" transform="scale(0.015625)"/>
      <path id="Inter-Regular-82" d="M 1472 -81 
Q 1141 -81 870 44 
Q 600 169 440 409 
Q 281 650 281 994 
Q 281 1294 400 1481 
Q 519 1669 717 1776 
Q 916 1884 1156 1937 
Q 1397 1991 1641 2022 
Q 1953 2063 2150 2084 
Q 2347 2106 2442 2159 
Q 2538 2213 2538 2341 
L 2538 2359 
Q 2538 2578 2456 2729 
Q 2375 2881 2212 2962 
Q 2050 3044 1806 3044 
Q 1556 3044 1378 2966 
Q 1200 2888 1089 2770 
Q 978 2653 922 2531 
L 381 2709 
Q 516 3028 744 3208 
Q 972 3388 1247 3463 
Q 1522 3538 1791 3538 
Q 1966 3538 2189 3495 
Q 2413 3453 2620 3328 
Q 2828 3203 2964 2958 
Q 3100 2713 3100 2303 
L 3100 0 
L 2547 0 
L 2547 475 
L 2509 475 
Q 2450 353 2319 223 
Q 2188 94 1978 6 
Q 1769 -81 1472 -81 
z
M 1569 416 
Q 1881 416 2097 537 
Q 2313 659 2425 854 
Q 2538 1050 2538 1263 
L 2538 1747 
Q 2503 1706 2387 1673 
Q 2272 1641 2123 1616 
Q 1975 1591 1836 1573 
Q 1697 1556 1616 1547 
Q 1413 1522 1236 1461 
Q 1059 1400 953 1283 
Q 847 1166 847 966 
Q 847 784 940 662 
Q 1034 541 1196 478 
Q 1359 416 1569 416 
z
" transform="scale(0.015625)"/>
      <path id="Inter-Regular-92" d="M 1916 -75 
Q 1441 -75 1083 150 
Q 725 375 525 781 
Q 325 1188 325 1725 
Q 325 2272 525 2680 
Q 725 3088 1083 3313 
Q 1441 3538 1916 3538 
Q 2169 3538 2394 3472 
Q 2619 3406 2805 3282 
Q 2991 3159 3125 2979 
Q 3259 2800 3331 2572 
L 2791 2419 
Q 2753 2553 2675 2665 
Q 2597 2778 2486 2861 
Q 2375 2944 2231 2989 
Q 2088 3034 1916 3034 
Q 1566 3034 1341 2851 
Q 1116 2669 1006 2372 
Q 897 2075 897 1725 
Q 897 1381 1006 1086 
Q 1116 791 1341 609 
Q 1566 428 1916 428 
Q 2091 428 2237 475 
Q 2384 522 2498 608 
Q 2613 694 2691 812 
Q 2769 931 2806 1072 
L 3344 919 
Q 3275 684 3139 501 
Q 3003 319 2815 189 
Q 2628 59 2400 -8 
Q 2172 -75 1916 -75 
z
" transform="scale(0.015625)"/>
      <path id="Inter-Regular-a1" d="M 1909 -1381 
Q 1522 -1381 1239 -1282 
Q 956 -1184 768 -1021 
Q 581 -859 472 -669 
L 928 -375 
Q 1003 -475 1114 -597 
Q 1225 -719 1414 -805 
Q 1603 -891 1909 -891 
Q 2328 -891 2598 -691 
Q 2869 -491 2869 -59 
L 2869 641 
L 2816 641 
Q 2756 541 2648 403 
Q 2541 266 2339 161 
Q 2138 56 1800 56 
Q 1381 56 1047 254 
Q 713 453 519 834 
Q 325 1216 325 1763 
Q 325 2303 515 2701 
Q 706 3100 1042 3319 
Q 1378 3538 1813 3538 
Q 2150 3538 2351 3427 
Q 2553 3316 2662 3172 
Q 2772 3028 2831 2934 
L 2884 2934 
L 2884 3494 
L 3431 3494 
L 3431 -91 
Q 3431 -541 3228 -827 
Q 3025 -1113 2679 -1247 
Q 2334 -1381 1909 -1381 
z
M 1894 556 
Q 2213 556 2431 701 
Q 2650 847 2762 1120 
Q 2875 1394 2875 1775 
Q 2875 2147 2764 2430 
Q 2653 2713 2434 2873 
Q 2216 3034 1894 3034 
Q 1563 3034 1341 2864 
Q 1119 2694 1008 2409 
Q 897 2125 897 1775 
Q 897 1416 1009 1141 
Q 1122 866 1344 711 
Q 1566 556 1894 556 
z
" transform="scale(0.015625)"/>
     </defs>
     <use xlink:href="#Inter-Regular-12"/>
     <use xlink:href="#Inter-Regular-c3" transform="translate(73.046875 0)"/>
     <use xlink:href="#Inter-Regular-dc" transform="translate(133.015625 0)"/>
     <use xlink:href="#Inter-Regular-be" transform="translate(192.140625 0)"/>
     <use xlink:href="#Inter-Regular-d9" transform="translate(251.21875 0)"/>
     <use xlink:href="#Inter-Regular-97" transform="translate(282.96875 0)"/>
     <use xlink:href="#Inter-Regular-95" transform="translate(341.265625 0)"/>
     <use xlink:href="#Inter-Regular-1cd" transform="translate(402.5 0)"/>
     <use xlink:href="#Inter-Regular-a0" transform="translate(430.625 0)"/>
     <use xlink:href="#Inter-Regular-d2" transform="translate(467.640625 0)"/>
     <use xlink:href="#Inter-Regular-c3" transform="translate(503.625 0)"/>
     <use xlink:href="#Inter-Regular-bb" transform="translate(563.59375 0)"/>
     <use xlink:href="#Inter-Regular-1cd" transform="translate(651.1875 0)"/>
     <use xlink:href="#Inter-Regular-e9" transform="translate(679.3125 0)"/>
     <use xlink:href="#Inter-Regular-a4" transform="translate(761.15625 0)"/>
     <use xlink:href="#Inter-Regular-97" transform="translate(820.28125 0)"/>
     <use xlink:href="#Inter-Regular-be" transform="translate(878.578125 0)"/>
     <use xlink:href="#Inter-Regular-1cd" transform="translate(937.65625 0)"/>
     <use xlink:href="#Inter-Regular-d5" transform="translate(965.78125 0)"/>
     <use xlink:href="#Inter-Regular-dc" transform="translate(1018.5625 0)"/>
     <use xlink:href="#Inter-Regular-cf" transform="translate(1077.6875 0)"/>
     <use xlink:href="#Inter-Regular-cf" transform="translate(1138.921875 0)"/>
     <use xlink:href="#Inter-Regular-c3" transform="translate(1200.15625 0)"/>
     <use xlink:href="#Inter-Regular-d2" transform="translate(1260.125 0)"/>
     <use xlink:href="#Inter-Regular-d9" transform="translate(1299.328125 0)"/>
     <use xlink:href="#Inter-Regular-1cd" transform="translate(1332.046875 0)"/>
     <use xlink:href="#Inter-Regular-a0" transform="translate(1360.171875 0)"/>
     <use xlink:href="#Inter-Regular-c3" transform="translate(1394.265625 0)"/>
     <use xlink:href="#Inter-Regular-d2" transform="translate(1454.234375 0)"/>
     <use xlink:href="#Inter-Regular-1cd" transform="translate(1491.875 0)"/>
     <use xlink:href="#Inter-Regular-97" transform="translate(1520 0)"/>
     <use xlink:href="#Inter-Regular-82" transform="translate(1579.28125 0)"/>
     <use xlink:href="#Inter-Regular-92" transform="translate(1635.4375 0)"/>
     <use xlink:href="#Inter-Regular-a4" transform="translate(1692.5625 0)"/>
     <use xlink:href="#Inter-Regular-1cd" transform="translate(1751.6875 0)"/>
     <use xlink:href="#Inter-Regular-a0" transform="translate(1779.8125 0)"/>
     <use xlink:href="#Inter-Regular-c3" transform="translate(1813.90625 0)"/>
     <use xlink:href="#Inter-Regular-d2" transform="translate(1873.875 0)"/>
     <use xlink:href="#Inter-Regular-bb" transform="translate(1913.078125 0)"/>
     <use xlink:href="#Inter-Regular-82" transform="translate(2000.671875 0)"/>
     <use xlink:href="#Inter-Regular-d9" transform="translate(2056.828125 0)"/>
     <use xlink:href="#Inter-Regular-1cd" transform="translate(2089.546875 0)"/>
     <use xlink:href="#Inter-Regular-e9" transform="translate(2117.671875 0)"/>
     <use xlink:href="#Inter-Regular-82" transform="translate(2199.515625 0)"/>
     <use xlink:href="#Inter-Regular-d5" transform="translate(2255.671875 0)"/>
     <use xlink:href="#Inter-Regular-1cd" transform="translate(2308.453125 0)"/>
     <use xlink:href="#Inter-Regular-bb" transform="translate(2336.578125 0)"/>
     <use xlink:href="#Inter-Regular-97" transform="translate(2424.171875 0)"/>
     <use xlink:href="#Inter-Regular-d2" transform="translate(2482.46875 0)"/>
     <use xlink:href="#Inter-Regular-a1" transform="translate(2518.453125 0)"/>
     <use xlink:href="#Inter-Regular-97" transform="translate(2579.78125 0)"/>
     <use xlink:href="#Inter-Regular-95" transform="translate(2638.078125 0)"/>
    </g>
   </g>
   <g id="text_27">
    <!-- Formats supported by NeuroConv -->
    <g style="fill: #0a0e28" transform="translate(27.98 31.7) scale(0.22 -0.22)">
     <defs>
      <path id="FigtreeLight-Bold-14" d="M 486 0 
L 486 4480 
L 3360 4480 
L 3360 3680 
L 1363 3680 
L 1363 2605 
L 3027 2605 
L 3027 1805 
L 1363 1805 
L 1363 0 
L 486 0 
z
" transform="scale(0.015625)"/>
      <path id="FigtreeLight-Bold-60" d="M 1869 -77 
Q 1382 -77 1001 137 
Q 621 352 406 729 
Q 192 1107 192 1600 
Q 192 2093 403 2470 
Q 614 2848 992 3062 
Q 1370 3277 1856 3277 
Q 2349 3277 2726 3062 
Q 3104 2848 3315 2470 
Q 3526 2093 3526 1600 
Q 3526 1107 3315 729 
Q 3104 352 2729 137 
Q 2355 -77 1869 -77 
z
M 1869 704 
Q 2106 704 2285 819 
Q 2464 934 2563 1136 
Q 2662 1338 2662 1600 
Q 2662 1862 2560 2064 
Q 2458 2266 2275 2381 
Q 2093 2496 1856 2496 
Q 1626 2496 1443 2381 
Q 1261 2266 1158 2064 
Q 1056 1862 1056 1600 
Q 1056 1338 1158 1136 
Q 1261 934 1446 819 
Q 1632 704 1869 704 
z
" transform="scale(0.015625)"/>
      <path id="FigtreeLight-Bold-6b" d="M 365 0 
L 365 3200 
L 1210 3200 
L 1210 2611 
Q 1408 2912 1712 3062 
Q 2016 3213 2342 3213 
L 2342 2394 
Q 2048 2394 1789 2323 
Q 1530 2253 1370 2093 
Q 1210 1933 1210 1683 
L 1210 0 
L 365 0 
z
" transform="scale(0.015625)"/>
      <path id="FigtreeLight-Bold-5d" d="M 365 0 
L 365 3200 
L 1158 3200 
L 1197 2784 
Q 1344 3027 1574 3152 
Q 1805 3277 2086 3277 
Q 2477 3277 2742 3110 
Q 3008 2944 3130 2598 
Q 3270 2925 3526 3101 
Q 3782 3277 4122 3277 
Q 4685 3277 4979 2921 
Q 5274 2566 5274 1830 
L 5274 0 
L 4429 0 
L 4429 1638 
Q 4429 1965 4358 2144 
Q 4288 2323 4166 2403 
Q 4045 2483 3878 2483 
Q 3571 2490 3404 2285 
Q 3238 2080 3238 1677 
L 3238 0 
L 2394 0 
L 2394 1638 
Q 2394 1965 2326 2144 
Q 2259 2323 2134 2403 
Q 2010 2483 1843 2483 
Q 1536 2490 1373 2285 
Q 1210 2080 1210 1677 
L 1210 0 
L 365 0 
z
" transform="scale(0.015625)"/>
      <path id="FigtreeLight-Bold-3c" d="M 1402 -77 
Q 826 -77 509 179 
Q 192 435 192 902 
Q 192 1414 534 1673 
Q 877 1933 1498 1933 
L 2253 1933 
Q 2208 2227 2067 2384 
Q 1926 2541 1664 2541 
Q 1459 2541 1292 2451 
Q 1126 2362 1011 2176 
L 269 2432 
Q 358 2637 531 2832 
Q 704 3027 982 3152 
Q 1261 3277 1664 3277 
Q 2150 3277 2473 3091 
Q 2797 2906 2953 2570 
Q 3110 2234 3104 1773 
L 3085 0 
L 2298 0 
L 2285 371 
Q 2163 154 1942 38 
Q 1722 -77 1402 -77 
z
M 1542 627 
Q 1747 627 1913 723 
Q 2080 819 2176 972 
Q 2272 1126 2272 1293 
L 2272 1306 
L 1792 1306 
Q 1376 1306 1216 1206 
Q 1056 1107 1056 928 
Q 1056 787 1184 707 
Q 1312 627 1542 627 
z
" transform="scale(0.015625)"/>
      <path id="FigtreeLight-Bold-6e" d="M 1683 -77 
Q 1152 -77 880 185 
Q 608 448 608 934 
L 608 2483 
L 90 2483 
L 90 3200 
L 608 3200 
L 608 4198 
L 1453 4198 
L 1453 3200 
L 2253 3200 
L 2253 2483 
L 1453 2483 
L 1453 1120 
Q 1453 915 1542 809 
Q 1632 704 1805 704 
Q 1869 704 1945 733 
Q 2022 762 2106 819 
L 2400 186 
Q 2246 70 2057 -3 
Q 1869 -77 1683 -77 
z
" transform="scale(0.015625)"/>
      <path id="FigtreeLight-Bold-6c" d="M 1562 -77 
Q 1254 -77 985 16 
Q 717 109 512 285 
Q 307 461 192 717 
L 915 1050 
Q 1011 896 1177 784 
Q 1344 672 1562 672 
Q 1773 672 1888 733 
Q 2003 794 2003 909 
Q 2003 1024 1910 1078 
Q 1818 1133 1658 1171 
L 1363 1248 
Q 902 1370 636 1635 
Q 371 1901 371 2246 
Q 371 2739 688 3008 
Q 1005 3277 1587 3277 
Q 1888 3277 2147 3187 
Q 2406 3098 2592 2938 
Q 2778 2778 2848 2566 
L 2150 2246 
Q 2106 2374 1933 2454 
Q 1760 2534 1587 2534 
Q 1414 2534 1321 2460 
Q 1229 2387 1229 2259 
Q 1229 2176 1318 2121 
Q 1408 2067 1574 2029 
L 1990 1926 
Q 2304 1850 2493 1680 
Q 2682 1510 2768 1302 
Q 2854 1094 2854 896 
Q 2854 608 2684 387 
Q 2515 166 2224 44 
Q 1933 -77 1562 -77 
z
" transform="scale(0.015625)"/>
      <path id="FigtreeLight-Bold-ac" transform="scale(0.015625)"/>
      <path id="FigtreeLight-Bold-6f" d="M 1504 -77 
Q 1120 -77 854 76 
Q 589 230 448 553 
Q 307 877 307 1389 
L 307 3200 
L 1152 3200 
L 1152 1562 
Q 1152 1242 1225 1059 
Q 1299 877 1436 797 
Q 1574 717 1747 717 
Q 2080 710 2253 918 
Q 2426 1126 2426 1523 
L 2426 3200 
L 3270 3200 
L 3270 0 
L 2477 0 
L 2445 435 
Q 2285 192 2045 57 
Q 1805 -77 1504 -77 
z
" transform="scale(0.015625)"/>
      <path id="FigtreeLight-Bold-68" d="M 397 -1280 
L 397 3200 
L 1190 3200 
L 1229 2746 
Q 1389 3002 1635 3139 
Q 1882 3277 2208 3277 
Q 2650 3277 2973 3072 
Q 3296 2867 3475 2492 
Q 3654 2118 3654 1600 
Q 3654 1088 3475 710 
Q 3296 333 2973 128 
Q 2650 -77 2208 -77 
Q 1888 -77 1645 57 
Q 1402 192 1242 435 
L 1242 -1280 
L 397 -1280 
z
M 1990 698 
Q 2221 698 2397 813 
Q 2573 928 2675 1133 
Q 2778 1338 2778 1600 
Q 2778 1862 2678 2067 
Q 2579 2272 2403 2384 
Q 2227 2496 1997 2496 
Q 1779 2496 1606 2381 
Q 1434 2266 1338 2064 
Q 1242 1862 1242 1600 
Q 1242 1338 1338 1133 
Q 1434 928 1603 813 
Q 1773 698 1990 698 
z
" transform="scale(0.015625)"/>
      <path id="FigtreeLight-Bold-49" d="M 1811 -77 
Q 1338 -77 973 137 
Q 608 352 400 729 
Q 192 1107 192 1600 
Q 192 2093 406 2470 
Q 621 2848 995 3062 
Q 1370 3277 1856 3277 
Q 2278 3277 2633 3056 
Q 2989 2835 3203 2409 
Q 3418 1984 3418 1376 
L 1075 1376 
Q 1107 1056 1350 867 
Q 1594 678 1901 678 
Q 2163 678 2329 790 
Q 2496 902 2586 1082 
L 3341 787 
Q 3206 518 2992 323 
Q 2778 128 2483 25 
Q 2189 -77 1811 -77 
z
M 1120 2003 
L 2502 2003 
Q 2483 2202 2374 2323 
Q 2266 2445 2118 2502 
Q 1971 2560 1830 2560 
Q 1696 2560 1539 2505 
Q 1382 2451 1264 2329 
Q 1146 2208 1120 2003 
z
" transform="scale(0.015625)"/>
      <path id="FigtreeLight-Bold-47" d="M 1638 -77 
Q 1197 -77 873 128 
Q 550 333 371 710 
Q 192 1088 192 1600 
Q 192 2118 371 2492 
Q 550 2867 873 3072 
Q 1197 3277 1638 3277 
Q 1952 3277 2198 3145 
Q 2445 3014 2598 2771 
L 2598 4480 
L 3443 4480 
L 3443 0 
L 2643 0 
L 2618 448 
Q 2458 198 2208 60 
Q 1958 -77 1638 -77 
z
M 1856 698 
Q 2067 698 2230 803 
Q 2394 909 2490 1101 
Q 2586 1293 2598 1536 
L 2598 1664 
Q 2586 1907 2490 2096 
Q 2394 2285 2227 2390 
Q 2061 2496 1850 2496 
Q 1619 2496 1443 2384 
Q 1267 2272 1168 2067 
Q 1069 1862 1069 1600 
Q 1069 1338 1171 1133 
Q 1274 928 1450 813 
Q 1626 698 1856 698 
z
" transform="scale(0.015625)"/>
      <path id="FigtreeLight-Bold-44" d="M 2176 -77 
Q 1850 -77 1606 60 
Q 1363 198 1197 454 
L 1165 0 
L 365 0 
L 365 4480 
L 1210 4480 
L 1210 2765 
Q 1370 3014 1613 3145 
Q 1856 3277 2176 3277 
Q 2618 3277 2941 3072 
Q 3264 2867 3443 2492 
Q 3622 2118 3622 1600 
Q 3622 1088 3443 710 
Q 3264 333 2941 128 
Q 2618 -77 2176 -77 
z
M 1958 698 
Q 2189 698 2365 813 
Q 2541 928 2643 1133 
Q 2746 1338 2746 1600 
Q 2746 1862 2646 2067 
Q 2547 2272 2371 2384 
Q 2195 2496 1965 2496 
Q 1747 2496 1574 2381 
Q 1402 2266 1306 2064 
Q 1210 1862 1210 1600 
Q 1210 1338 1306 1133 
Q 1402 928 1571 813 
Q 1741 698 1958 698 
z
" transform="scale(0.015625)"/>
      <path id="FigtreeLight-Bold-77" d="M 1005 -1357 
Q 832 -1357 624 -1289 
Q 416 -1222 256 -1133 
L 570 -448 
Q 678 -506 771 -541 
Q 864 -576 934 -576 
Q 1069 -576 1171 -502 
Q 1274 -429 1338 -288 
L 1472 38 
L 26 3200 
L 954 3200 
L 1862 992 
L 2733 3200 
L 3661 3200 
L 2208 -275 
Q 2074 -595 1926 -841 
Q 1779 -1088 1564 -1222 
Q 1350 -1357 1005 -1357 
z
" transform="scale(0.015625)"/>
      <path id="FigtreeLight-Bold-21" d="M 486 0 
L 486 4480 
L 1402 4480 
L 3590 1472 
L 3590 4480 
L 4461 4480 
L 4461 0 
L 3590 0 
L 1363 3066 
L 1363 0 
L 486 0 
z
" transform="scale(0.015625)"/>
      <path id="FigtreeLight-Bold-b" d="M 2464 -77 
Q 1811 -77 1305 220 
Q 800 518 512 1040 
Q 224 1562 224 2240 
Q 224 2918 512 3440 
Q 800 3962 1302 4259 
Q 1805 4557 2458 4557 
Q 2918 4557 3315 4393 
Q 3712 4230 4009 3939 
Q 4307 3648 4467 3270 
L 3654 2970 
Q 3546 3206 3366 3382 
Q 3187 3558 2956 3657 
Q 2726 3757 2458 3757 
Q 2067 3757 1763 3561 
Q 1459 3366 1289 3027 
Q 1120 2688 1120 2240 
Q 1120 1792 1293 1449 
Q 1466 1107 1773 912 
Q 2080 717 2477 717 
Q 2752 717 2979 822 
Q 3206 928 3382 1113 
Q 3558 1299 3667 1542 
L 4480 1248 
Q 4320 858 4022 557 
Q 3725 256 3328 89 
Q 2931 -77 2464 -77 
z
" transform="scale(0.015625)"/>
      <path id="FigtreeLight-Bold-5e" d="M 365 0 
L 365 3200 
L 1158 3200 
L 1197 2765 
Q 1350 3014 1590 3145 
Q 1830 3277 2138 3277 
Q 2515 3277 2784 3123 
Q 3053 2970 3193 2646 
Q 3334 2323 3328 1811 
L 3328 0 
L 2483 0 
L 2483 1638 
Q 2483 1965 2409 2144 
Q 2336 2323 2201 2403 
Q 2067 2483 1888 2483 
Q 1562 2490 1386 2285 
Q 1210 2080 1210 1677 
L 1210 0 
L 365 0 
z
" transform="scale(0.015625)"/>
      <path id="FigtreeLight-Bold-74" d="M 1357 0 
L 45 3200 
L 915 3200 
L 1779 966 
L 2643 3200 
L 3514 3200 
L 2202 0 
L 1357 0 
z
" transform="scale(0.015625)"/>
     </defs>
     <use xlink:href="#FigtreeLight-Bold-14"/>
     <use xlink:href="#FigtreeLight-Bold-60" transform="translate(54.609375 0)"/>
     <use xlink:href="#FigtreeLight-Bold-6b" transform="translate(112.703125 0)"/>
     <use xlink:href="#FigtreeLight-Bold-5d" transform="translate(150.609375 0)"/>
     <use xlink:href="#FigtreeLight-Bold-3c" transform="translate(237.8125 0)"/>
     <use xlink:href="#FigtreeLight-Bold-6e" transform="translate(291.109375 0)"/>
     <use xlink:href="#FigtreeLight-Bold-6c" transform="translate(331.3125 0)"/>
     <use xlink:href="#FigtreeLight-Bold-ac" transform="translate(377.90625 0)"/>
     <use xlink:href="#FigtreeLight-Bold-6c" transform="translate(401.703125 0)"/>
     <use xlink:href="#FigtreeLight-Bold-6f" transform="translate(448.296875 0)"/>
     <use xlink:href="#FigtreeLight-Bold-68" transform="translate(505.09375 0)"/>
     <use xlink:href="#FigtreeLight-Bold-68" transform="translate(565.1875 0)"/>
     <use xlink:href="#FigtreeLight-Bold-60" transform="translate(625.28125 0)"/>
     <use xlink:href="#FigtreeLight-Bold-6b" transform="translate(683.375 0)"/>
     <use xlink:href="#FigtreeLight-Bold-6e" transform="translate(721.28125 0)"/>
     <use xlink:href="#FigtreeLight-Bold-49" transform="translate(760.578125 0)"/>
     <use xlink:href="#FigtreeLight-Bold-47" transform="translate(815.984375 0)"/>
     <use xlink:href="#FigtreeLight-Bold-ac" transform="translate(875.484375 0)"/>
     <use xlink:href="#FigtreeLight-Bold-44" transform="translate(899.28125 0)"/>
     <use xlink:href="#FigtreeLight-Bold-77" transform="translate(956.671875 0)"/>
     <use xlink:href="#FigtreeLight-Bold-ac" transform="translate(1014.265625 0)"/>
     <use xlink:href="#FigtreeLight-Bold-21" transform="translate(1038.0625 0)"/>
     <use xlink:href="#FigtreeLight-Bold-49" transform="translate(1115.359375 0)"/>
     <use xlink:href="#FigtreeLight-Bold-6f" transform="translate(1170.765625 0)"/>
     <use xlink:href="#FigtreeLight-Bold-6b" transform="translate(1227.5625 0)"/>
     <use xlink:href="#FigtreeLight-Bold-60" transform="translate(1265.46875 0)"/>
     <use xlink:href="#FigtreeLight-Bold-b" transform="translate(1323.5625 0)"/>
     <use xlink:href="#FigtreeLight-Bold-60" transform="translate(1396.0625 0)"/>
     <use xlink:href="#FigtreeLight-Bold-5e" transform="translate(1454.15625 0)"/>
     <use xlink:href="#FigtreeLight-Bold-74" transform="translate(1509.546875 0)"/>
    </g>
   </g>
   <g id="line2d_24">
    <path d="M 192.358995 275.39541 
L 192.358995 269.737204 
" style="fill: none; stroke: #55607a; stroke-opacity: 0.55; stroke-width: 1.1; stroke-linecap: square"/>
   </g>
   <g id="line2d_25">
    <path d="M 207.676648 275.39541 
L 207.676648 269.737204 
" style="fill: none; stroke: #55607a; stroke-opacity: 0.55; stroke-width: 1.1; stroke-linecap: square"/>
   </g>
   <g id="line2d_26">
    <path d="M 265.746558 275.39541 
L 265.746558 269.737204 
" style="fill: none; stroke: #55607a; stroke-opacity: 0.55; stroke-width: 1.1; stroke-linecap: square"/>
   </g>
   <g id="line2d_27">
    <path d="M 276.263155 275.39541 
L 276.263155 269.737204 
" style="fill: none; stroke: #55607a; stroke-opacity: 0.55; stroke-width: 1.1; stroke-linecap: square"/>
   </g>
   <g id="line2d_28">
    <path d="M 358.566964 275.39541 
L 358.566964 269.737204 
" style="fill: none; stroke: #55607a; stroke-opacity: 0.55; stroke-width: 1.1; stroke-linecap: square"/>
   </g>
   <g id="line2d_29">
    <path d="M 367.940453 275.39541 
L 367.940453 269.737204 
" style="fill: none; stroke: #55607a; stroke-opacity: 0.55; stroke-width: 1.1; stroke-linecap: square"/>
   </g>
   <g id="line2d_30">
    <path d="M 410.921331 275.39541 
L 410.921331 269.737204 
" style="fill: none; stroke: #55607a; stroke-opacity: 0.55; stroke-width: 1.1; stroke-linecap: square"/>
   </g>
   <g id="line2d_31">
    <path d="M 450.01564 275.39541 
L 450.01564 269.737204 
" style="fill: none; stroke: #55607a; stroke-opacity: 0.55; stroke-width: 1.1; stroke-linecap: square"/>
   </g>
   <g id="line2d_32">
    <path d="M 474.020917 275.39541 
L 474.020917 269.737204 
" style="fill: none; stroke: #55607a; stroke-opacity: 0.55; stroke-width: 1.1; stroke-linecap: square"/>
   </g>
   <g id="line2d_33">
    <path d="M 532.54807 275.39541 
L 532.54807 269.737204 
" style="fill: none; stroke: #55607a; stroke-opacity: 0.55; stroke-width: 1.1; stroke-linecap: square"/>
   </g>
  </g>
 </g>
 <defs>
  <clipPath id="p62d7509afe">
   <rect x="27.98" y="71.7" width="532.002673" height="203.69541"/>
  </clipPath>
 </defs>
</svg>
